<svg width="424" height="434" viewBox="0 0 424 434" fill="none" xmlns="http://www.w3.org/2000/svg">
<path d="M186 326.5C186 326.5 55.4999 329 42.5 331C35.8982 332.016 25.6384 350.842 17 372.5C8.62796 393.491 -2.12902 418.076 9.99996 428C22.129 437.924 93.5 408 150.5 399C199.834 386.935 246.358 388.067 251.5 361.5C257.5 330.5 254.05 288 260.5 244C274.5 148.5 298.5 142 278.5 118C258.5 94 145.5 166.381 140 163.5C134.5 160.619 157 88.5 157 88.5C157 88.5 -1.50001 252.5 24 275C49.5 297.5 186 194.5 194.5 212.5C203 230.5 186 326.5 186 326.5Z" fill="url(#paint0_linear_1_8)" stroke="black" stroke-width="8"/>
<path d="M375 14C359.098 4.00001 338.5 4 302 4C274 27.5 253.5 49.3568 230 87C237 93 251.5 94 274 99C292.5 79.5 342.5 32.5 375 14Z" fill="url(#paint1_linear_1_8)" stroke="black" stroke-width="8"/>
<path d="M382.074 33C395.574 39 407.5 42 419 54C401 87.5 363.074 118 328.074 133C314.074 127 292.574 110 294.074 103.5C328.074 73 345.574 60 382.074 33Z" fill="url(#paint2_linear_1_8)"/>
<path d="M419 54C407.5 42 395.574 39 382.074 33C345.574 60 328.074 73 294.074 103.5C292.574 110 314.074 127 328.074 133M419 54C401 87.5 363.074 118 328.074 133M419 54C395 91 370.347 103.5 328.074 133" stroke="black" stroke-width="8"/>
<defs>
<linearGradient id="paint0_linear_1_8" x1="278" y1="119.5" x2="8.50008" y2="425.5" gradientUnits="userSpaceOnUse">
<stop stop-color="#0B0C40"/>
<stop offset="1" stop-color="#B5437C"/>
</linearGradient>
<linearGradient id="paint1_linear_1_8" x1="341" y1="4" x2="251.5" y2="96" gradientUnits="userSpaceOnUse">
<stop stop-color="#0D0D41"/>
<stop offset="1" stop-color="#B2427B"/>
</linearGradient>
<linearGradient id="paint2_linear_1_8" x1="400" y1="40" x2="308.5" y2="119.5" gradientUnits="userSpaceOnUse">
<stop stop-color="#0D0D41"/>
<stop offset="1" stop-color="#AE417A"/>
</linearGradient>
</defs>
</svg>
