<svg width="465" height="88" viewBox="0 0 465 88" fill="none" xmlns="http://www.w3.org/2000/svg">
<g id="Memory Card Game" filter="url(#filter0_d_14_122)">
<path d="M16.928 59.16C14.24 59.16 12.0213 58.6907 10.272 57.752C8.52267 56.8133 7.22133 55.5973 6.368 54.104C5.51467 52.6107 5.088 51.0747 5.088 49.496C5.088 48.216 5.30133 47.064 5.728 46.04C6.58133 44.0347 8.11733 42.2853 10.336 40.792C12.5547 39.2987 15.264 38.552 18.464 38.552C18.848 38.552 19.232 38.5733 19.616 38.616C20.0427 38.6587 20.4267 38.7227 20.768 38.808C21.2373 38.7653 21.6853 38.616 22.112 38.36C22.5387 38.0613 22.8587 37.8053 23.072 37.592C23.2853 37.336 23.456 37.08 23.584 36.824C23.712 36.5253 23.776 36.2693 23.776 36.056C23.776 35.7573 23.6693 35.544 23.456 35.416C23.328 35.3307 23.264 35.2453 23.264 35.16C23.264 34.8613 23.5413 34.7973 24.096 34.968C24.9067 35.224 25.312 35.736 25.312 36.504C25.312 37.2293 24.928 37.848 24.16 38.36C23.8613 38.616 23.4987 38.808 23.072 38.936C22.688 39.0213 22.2827 39.064 21.856 39.064C23.3067 39.4907 24.6293 40.2373 25.824 41.304L26.144 41.176C26.6987 41.0053 27.3173 41.112 28 41.496C28.6827 41.88 29.1733 42.4987 29.472 43.352C29.6853 43.992 29.792 44.6747 29.792 45.4C29.792 46.168 29.664 46.9147 29.408 47.64C29.1947 48.3653 28.832 48.8773 28.32 49.176C27.808 49.4747 27.488 49.496 27.36 49.24C27.6587 48.984 27.808 48.6853 27.808 48.344C27.808 48.0027 27.68 47.64 27.424 47.256C27.2107 46.9147 26.976 46.6587 26.72 46.488C26.464 46.2747 26.1867 46.04 25.888 45.784C25.5893 45.4853 25.312 45.0587 25.056 44.504C24.8427 44.0773 24.736 43.672 24.736 43.288C24.736 42.7333 24.9067 42.2427 25.248 41.816C23.072 40.0667 20.5547 39.32 17.696 39.576C15.392 39.7893 13.4507 40.408 11.872 41.432C10.2933 42.4133 9.09867 43.6293 8.288 45.08C7.47733 46.5307 7.072 48.0453 7.072 49.624C7.072 51.7147 7.75467 53.5707 9.12 55.192L8.992 55C8.69333 54.4027 8.544 53.6987 8.544 52.888C8.544 52.376 8.608 51.9067 8.736 51.48C9.29067 50.072 10.08 49.368 11.104 49.368C11.7867 49.368 12.3413 49.688 12.768 50.328C12.9387 50.5413 13.024 50.776 13.024 51.032C13.024 51.416 12.8533 51.48 12.512 51.224C12.2133 51.0107 11.8293 51.032 11.36 51.288C10.8907 51.5867 10.4853 51.992 10.144 52.504C9.97333 52.7173 9.824 53.0373 9.696 53.464C9.568 53.8907 9.504 54.3387 9.504 54.808C9.504 55.064 9.54667 55.3627 9.632 55.704C10.4427 56.5147 11.424 57.1547 12.576 57.624C13.728 58.0933 15.072 58.328 16.608 58.328C18.8267 58.328 21.024 57.7733 23.2 56.664C25.376 55.5973 27.488 54.168 29.536 52.376C31.584 50.584 33.5467 48.5787 35.424 46.36C37.3013 44.1413 39.072 41.88 40.736 39.576C42.4 37.2293 43.9147 35.0107 45.28 32.92C46.688 30.8293 47.904 29.0373 48.928 27.544C51.0613 24.3867 53.28 21.3573 55.584 18.456C57.888 15.5547 60.3413 13.208 62.944 11.416C59.9573 10.4347 56.7787 9.38933 53.408 8.28C50.08 7.17066 46.7093 6.36 43.296 5.848C42.272 5.63467 41.2907 5.50667 40.352 5.464C40.3947 5.50667 40.352 5.50667 40.224 5.464C39.6693 5.37866 39.1787 5.50667 38.752 5.848C38.3253 6.14666 38.0267 6.424 37.856 6.68C37.5573 7.192 37.408 7.66133 37.408 8.088C37.408 8.472 37.536 8.728 37.792 8.856C38.0053 8.94133 38.112 9.048 38.112 9.176C38.112 9.34667 37.9627 9.432 37.664 9.432C37.3227 9.432 36.9173 9.304 36.448 9.048C36.0213 8.792 35.808 8.38666 35.808 7.832C35.808 7.27733 36.0213 6.76533 36.448 6.296C36.9173 5.82667 37.4933 5.50667 38.176 5.336C34.72 5.25066 31.7333 5.656 29.216 6.552C26.6987 7.448 24.6293 8.64267 23.008 10.136C21.3867 11.5867 20.1707 13.208 19.36 15C19.5307 15 19.616 15.1067 19.616 15.32C19.5733 16.216 19.68 16.9413 19.936 17.496C20.192 18.0507 20.5333 18.5627 20.96 19.032C21.216 18.5627 21.5787 18.2213 22.048 18.008C22.5173 17.7947 23.008 17.688 23.52 17.688C23.9467 17.688 24.3093 17.752 24.608 17.88C25.3333 18.136 25.888 18.4347 26.272 18.776C26.6987 19.0747 27.0613 19.3947 27.36 19.736C27.5733 19.992 27.8933 20.2267 28.32 20.44C28.7467 20.6533 29.152 20.76 29.536 20.76C30.1333 20.76 30.5813 20.5253 30.88 20.056C31.008 20.184 31.072 20.376 31.072 20.632C31.072 21.272 30.752 21.8267 30.112 22.296C29.5147 22.7653 28.768 23.128 27.872 23.384C27.0187 23.64 26.1653 23.768 25.312 23.768C23.776 23.768 22.56 23.32 21.664 22.424C20.8107 21.4853 20.4693 20.6107 20.64 19.8L20.704 19.672C20.1493 19.2027 19.744 18.712 19.488 18.2C19.232 17.6453 18.9973 17.048 18.784 16.408C18.3147 17.9013 18.08 19.3093 18.08 20.632C18.08 22.3813 18.4427 24.0453 19.168 25.624C19.8933 27.16 20.96 28.3973 22.368 29.336C23.776 30.2747 25.4827 30.744 27.488 30.744C29.4933 30.744 31.4347 30.232 33.312 29.208C35.1893 28.1413 36.704 26.712 37.856 24.92C39.008 23.0853 39.4987 21.016 39.328 18.712C39.2853 17.9867 39.0293 17.24 38.56 16.472C38.1333 15.704 37.4933 15.32 36.64 15.32C36.4267 15.32 36.192 15.3627 35.936 15.448C35.68 15.5333 35.5093 15.6827 35.424 15.896C35.3813 16.024 35.296 16.088 35.168 16.088C34.9547 16.088 34.848 15.896 34.848 15.512C34.848 14.9147 35.0613 14.424 35.488 14.04C35.9573 13.656 36.4693 13.464 37.024 13.464C37.6213 13.464 38.1973 13.7627 38.752 14.36C39.3493 14.9573 39.6693 16.0027 39.712 17.496C39.84 17.112 40.0107 16.728 40.224 16.344C40.6933 15.704 41.248 15.384 41.888 15.384C42.5707 15.384 43.0187 15.704 43.232 16.344C43.3173 16.6 43.3173 16.792 43.232 16.92C43.1467 17.048 43.0187 17.0267 42.848 16.856C42.72 16.728 42.5707 16.664 42.4 16.664C42.0587 16.664 41.6107 16.856 41.056 17.24C40.928 17.368 40.7787 17.56 40.608 17.816C40.4373 18.072 40.3093 18.3707 40.224 18.712C40.3093 21.3147 39.8187 23.5547 38.752 25.432C37.6853 27.3093 36.2987 28.7813 34.592 29.848C34.8053 29.8053 34.9973 29.784 35.168 29.784C35.3387 29.7413 35.5093 29.72 35.68 29.72C36.5333 29.72 37.216 29.9547 37.728 30.424C38.2827 30.8507 38.56 31.32 38.56 31.832C38.56 32.3867 38.2827 32.856 37.728 33.24C37.4293 33.4107 37.1947 33.4747 37.024 33.432C36.8533 33.3467 36.8533 33.1973 37.024 32.984C37.2373 32.728 37.216 32.408 36.96 32.024C36.7467 31.64 36.4267 31.2987 36 31C35.5307 30.616 34.8907 30.424 34.08 30.424C33.9947 30.424 33.888 30.424 33.76 30.424C33.632 30.424 33.5253 30.4453 33.44 30.488C31.6053 31.3413 29.664 31.768 27.616 31.768C25.0133 31.768 22.7947 31.256 20.96 30.232C19.168 29.1653 17.76 27.8427 16.736 26.264C16.736 26.52 16.6933 26.8187 16.608 27.16C16.352 27.9707 15.904 28.6747 15.264 29.272C15.4773 29.6987 15.584 30.1467 15.584 30.616C15.584 31.6827 15.136 32.664 14.24 33.56C13.728 34.1147 12.9813 34.6053 12 35.032C11.0187 35.416 10.08 35.608 9.184 35.608C8.45867 35.608 7.86133 35.4373 7.392 35.096C7.09333 34.8827 6.92267 34.6907 6.88 34.52C6.83733 34.3067 6.83733 34.1787 6.88 34.136C7.008 34.2213 7.2 34.264 7.456 34.264C7.968 34.264 8.416 34.0293 8.8 33.56C9.22667 33.048 9.48267 32.5787 9.568 32.152C9.65333 31.7253 9.78133 31.2773 9.952 30.808C10.1227 30.3387 10.4213 29.848 10.848 29.336C11.488 28.568 12.2987 28.184 13.28 28.184C13.9627 28.184 14.5173 28.3973 14.944 28.824C15.3707 28.312 15.6907 27.6293 15.904 26.776C15.9467 26.5627 15.968 26.3493 15.968 26.136C16.0107 25.9227 16.032 25.7307 16.032 25.56C16.032 25.176 16.0107 24.8987 15.968 24.728C15.328 23.192 15.008 21.5493 15.008 19.8C15.008 18.3067 15.2427 16.8133 15.712 15.32C16.224 13.784 16.992 12.3547 18.016 11.032C17.8453 11.0747 17.632 11.1173 17.376 11.16C17.1627 11.16 16.9493 11.16 16.736 11.16C16.1813 11.16 15.6267 11.0533 15.072 10.84C14.56 10.6267 14.0907 10.3067 13.664 9.88C13.536 9.92266 13.344 9.944 13.088 9.944C12.4907 9.944 11.8507 9.70933 11.168 9.24C10.528 8.77067 10.0373 8.13067 9.696 7.32C9.44 6.68 9.312 5.912 9.312 5.016C9.312 4.03467 9.46133 3.096 9.76 2.2C10.0587 1.304 10.5067 0.706665 11.104 0.407997C11.4453 0.194664 11.7013 0.10933 11.872 0.151997C12.0427 0.194665 12.1707 0.237333 12.256 0.279999C11.9147 0.578664 11.744 0.962664 11.744 1.432C11.744 1.85867 11.872 2.28533 12.128 2.712C12.384 3.096 12.6613 3.39466 12.96 3.608C13.3013 3.864 13.6427 4.16266 13.984 4.504C14.368 4.84533 14.7093 5.31467 15.008 5.912C15.2213 6.424 15.328 6.89333 15.328 7.32C15.328 8.344 14.9653 9.112 14.24 9.624C14.8373 10.136 15.6267 10.392 16.608 10.392H16.992C17.5893 10.392 18.208 10.2853 18.848 10.072C20.512 8.19466 22.7307 6.65866 25.504 5.464C28.2773 4.26933 31.648 3.672 35.616 3.672C36.5973 3.672 37.6 3.71466 38.624 3.8C39.648 3.88533 40.6933 4.01333 41.76 4.184C44.0213 4.52533 46.4747 5.08 49.12 5.848C51.808 6.616 54.4533 7.42667 57.056 8.28C59.6587 9.13333 61.984 9.92266 64.032 10.648C65.2693 9.92266 66.528 9.34666 67.808 8.92C69.088 8.49333 70.4107 8.28 71.776 8.28C72.9707 8.28 73.8667 8.536 74.464 9.048C75.104 9.56 75.424 10.136 75.424 10.776C75.424 11.4587 75.04 12.0773 74.272 12.632C73.5467 13.1867 72.3947 13.4427 70.816 13.4C69.664 15.1067 68.6187 16.984 67.68 19.032C66.7413 21.08 65.888 23.128 65.12 25.176C64.3947 27.224 63.776 29.1227 63.264 30.872C62.624 33.048 61.92 35.1173 61.152 37.08C60.4267 39.0427 59.3173 40.8347 57.824 42.456C60.4693 40.4507 62.88 38.1467 65.056 35.544C67.2747 32.9413 69.28 30.2747 71.072 27.544C72.2667 25.7093 73.7173 23.64 75.424 21.336C77.1307 18.9893 79.008 16.6427 81.056 14.296C83.104 11.9067 85.216 9.688 87.392 7.64C89.6107 5.54933 91.8293 3.84266 94.048 2.52C96.2667 1.15466 98.3787 0.386664 100.384 0.216C100.64 0.173331 100.896 0.151997 101.152 0.151997C101.408 0.151997 101.643 0.151997 101.856 0.151997C104.331 0.151997 106.101 0.685331 107.168 1.752C108.235 2.776 108.768 3.88533 108.768 5.08C108.768 5.848 108.555 6.57333 108.128 7.256C107.701 7.896 107.125 8.344 106.4 8.6L106.272 7.96C107.296 7.36267 107.808 6.50933 107.808 5.4C107.808 4.54667 107.424 3.75733 106.656 3.032C105.931 2.30666 104.821 1.944 103.328 1.944C102.56 1.944 101.685 2.072 100.704 2.328C99.168 2.75467 97.4613 3.62933 95.584 4.952C93.7067 6.27466 91.744 7.85333 89.696 9.688C87.6907 11.5227 85.7067 13.4853 83.744 15.576C81.824 17.624 80.032 19.608 78.368 21.528C76.704 23.448 75.2747 25.1333 74.08 26.584C72.928 28.0347 72.1173 29.08 71.648 29.72C70.88 30.7867 69.8987 32.0667 68.704 33.56C67.552 35.0533 66.2293 36.5893 64.736 38.168C63.2853 39.704 61.7493 41.1547 60.128 42.52C58.5067 43.8427 56.864 44.9307 55.2 45.784C53.536 46.5947 51.9147 47 50.336 47C49.4827 47 49.056 46.9147 49.056 46.744C49.056 46.5307 49.3333 46.296 49.888 46.04C50.4427 45.784 50.8053 45.5707 50.976 45.4C51.1893 45.2293 51.552 44.7173 52.064 43.864C52.576 43.0107 53.1733 41.9867 53.856 40.792C54.5813 39.5547 55.3067 38.2747 56.032 36.952C56.8 35.6293 57.4827 34.4133 58.08 33.304C58.6773 32.152 59.1253 31.2347 59.424 30.552C59.68 30.04 60.1493 29.1227 60.832 27.8C61.5147 26.4347 62.3467 24.8987 63.328 23.192C64.3093 21.4427 65.3333 19.6933 66.4 17.944C67.5093 16.152 68.5973 14.5947 69.664 13.272C69.3653 13.2293 69.024 13.1653 68.64 13.08C68.256 12.9947 67.8507 12.9093 67.424 12.824L65.568 12.248C64.2027 13.4 62.8587 14.7653 61.536 16.344C60.2133 17.9227 58.976 19.544 57.824 21.208C56.7147 22.8293 55.712 24.3653 54.816 25.816C53.92 27.2667 53.1947 28.44 52.64 29.336C51.36 31.512 49.7813 33.9227 47.904 36.568C46.0267 39.2133 43.9147 41.8587 41.568 44.504C39.2213 47.1493 36.704 49.5813 34.016 51.8C31.3707 54.0187 28.5973 55.7893 25.696 57.112C22.7947 58.4773 19.872 59.16 16.928 59.16ZM72.032 12.376C72.7573 12.3333 73.3333 12.1413 73.76 11.8C74.1867 11.4587 74.4 11.0747 74.4 10.648C74.4 10.264 74.1867 9.92266 73.76 9.624C73.376 9.32533 72.7147 9.176 71.776 9.176C70.9653 9.21866 70.112 9.45333 69.216 9.88C68.32 10.264 67.424 10.7973 66.528 11.48C67.2533 11.736 67.9147 11.928 68.512 12.056C69.1093 12.184 69.7707 12.2693 70.496 12.312C70.7947 11.9707 71.072 11.672 71.328 11.416C71.6267 11.1173 71.9253 10.8827 72.224 10.712L72.608 10.904C72.4373 11.1173 72.2667 11.352 72.096 11.608C71.9253 11.864 71.7333 12.12 71.52 12.376H72.032ZM77.088 52.312C76.192 52.312 75.3813 52.0347 74.656 51.48C74.1013 51.096 73.696 50.52 73.44 49.752C73.184 48.984 73.056 48.1307 73.056 47.192C73.056 46.424 73.12 45.6133 73.248 44.76C73.4187 43.9067 73.632 43.032 73.888 42.136C74.6133 39.6613 75.7227 36.9307 77.216 33.944C78.752 30.9573 80.5013 27.928 82.464 24.856C84.4267 21.784 86.496 18.904 88.672 16.216C90.8907 13.4853 93.0453 11.16 95.136 9.24L95.52 9.688C94.112 11.3947 92.6827 13.4 91.232 15.704C89.824 17.9653 88.4373 20.376 87.072 22.936C85.7493 25.496 84.4907 28.0773 83.296 30.68C82.144 33.24 81.1413 35.6933 80.288 38.04C80.2453 38.168 80.0747 38.616 79.776 39.384C79.52 40.152 79.2213 41.112 78.88 42.264C78.5813 43.3733 78.304 44.504 78.048 45.656C77.792 46.808 77.664 47.8107 77.664 48.664C77.664 49.2613 77.7493 49.752 77.92 50.136C78.0907 50.52 78.368 50.712 78.752 50.712C79.136 50.712 79.648 50.52 80.288 50.136C80.5867 49.9227 80.864 49.7093 81.12 49.496C81.376 49.3253 81.632 49.112 81.888 48.856L82.4 49.432C81.8027 50.1147 81.0133 50.7547 80.032 51.352C79.0933 51.992 78.112 52.312 77.088 52.312ZM92.749 47.576C91.6397 47.576 90.5943 47.32 89.613 46.808C88.6317 46.2533 87.9063 45.3787 87.437 44.184C87.1383 43.416 86.989 42.5413 86.989 41.56C86.989 40.3653 87.2237 39.192 87.693 38.04C88.2903 36.632 89.165 35.2453 90.317 33.88C91.469 32.5147 92.749 31.2773 94.157 30.168C95.565 29.0587 96.973 28.184 98.381 27.544C99.789 26.8613 101.048 26.52 102.157 26.52C103.096 26.52 103.842 26.776 104.397 27.288C104.781 27.672 104.973 28.2267 104.973 28.952C104.973 29.8907 104.61 30.9787 103.885 32.216C103.202 33.4107 102.221 34.456 100.941 35.352C100.13 35.9067 99.1703 36.376 98.061 36.76C96.9943 37.1013 95.8637 37.272 94.669 37.272C94.285 37.272 93.8797 37.2507 93.453 37.208C93.069 37.1653 92.685 37.1013 92.301 37.016C92.0023 37.3573 91.6397 37.912 91.213 38.68C90.829 39.4053 90.4877 40.216 90.189 41.112C89.933 42.008 89.805 42.8613 89.805 43.672C89.8477 44.7813 90.1463 45.5707 90.701 46.04C91.2983 46.4667 92.0023 46.68 92.813 46.68C94.4343 46.68 95.9917 46.168 97.485 45.144C99.021 44.0773 100.408 42.776 101.645 41.24C102.882 39.704 103.928 38.232 104.781 36.824C104.909 36.6533 105.016 36.568 105.101 36.568C105.186 36.5253 105.25 36.504 105.293 36.504C105.421 36.504 105.528 36.568 105.613 36.696C105.741 36.824 105.762 36.9947 105.677 37.208C105.122 38.104 104.397 39.1707 103.501 40.408C102.648 41.6453 101.624 42.84 100.429 43.992C99.277 45.1013 97.9757 46.0187 96.525 46.744C95.9703 47.0427 95.3517 47.256 94.669 47.384C94.029 47.512 93.389 47.576 92.749 47.576ZM94.093 36.376C96.0983 36.376 97.9117 35.864 99.533 34.84C101.197 33.7733 102.392 32.4933 103.117 31C103.33 30.6587 103.458 30.3387 103.501 30.04C103.586 29.7413 103.629 29.5067 103.629 29.336C103.629 28.6107 103.224 28.248 102.413 28.248C101.901 28.248 101.325 28.376 100.685 28.632C100.088 28.888 99.5543 29.1867 99.085 29.528C98.2743 30.1253 97.421 30.872 96.525 31.768C95.6717 32.6213 94.9037 33.4747 94.221 34.328C93.5383 35.1387 93.0263 35.7787 92.685 36.248C92.8983 36.2907 93.133 36.3333 93.389 36.376C93.645 36.376 93.8797 36.376 94.093 36.376ZM130.627 47.96C129.347 47.96 128.429 47.64 127.875 47C127.32 46.3173 127.043 45.528 127.043 44.632C127.043 43.8213 127.192 43.0533 127.491 42.328C128.259 40.3227 129.176 38.5733 130.243 37.08C131.352 35.5867 132.504 33.9013 133.699 32.024C134.381 30.9147 134.722 30.0827 134.722 29.528C134.722 29.016 134.467 28.76 133.955 28.76C133.272 28.76 132.291 29.208 131.011 30.104C129.731 30.9573 128.408 32.1947 127.043 33.816C126.104 34.9253 125.08 36.2267 123.971 37.72C122.904 39.2133 121.88 40.664 120.899 42.072C119.917 43.48 119.128 44.6533 118.531 45.592C117.933 46.5307 117.635 47 117.635 47C117.379 47.0853 116.973 47.1493 116.419 47.192C115.864 47.2773 115.309 47.32 114.755 47.32C114.413 47.32 114.093 47.2987 113.795 47.256C113.539 47.256 113.304 47.2347 113.091 47.192C113.517 46.552 114.115 45.6773 114.883 44.568C115.693 43.4587 116.547 42.264 117.443 40.984C118.381 39.6613 119.277 38.3813 120.131 37.144C120.984 35.864 121.731 34.7547 122.371 33.816C123.011 32.8773 123.437 32.2373 123.651 31.896C124.419 30.6587 124.803 29.6347 124.803 28.824C124.803 28.2693 124.568 27.992 124.099 27.992C123.715 27.992 123.117 28.2693 122.307 28.824C121.496 29.336 120.408 30.232 119.043 31.512C118.147 32.3653 117.272 33.3253 116.419 34.392C115.565 35.4587 114.755 36.5253 113.987 37.592C112.792 39.1707 111.704 40.6853 110.723 42.136C109.741 43.544 108.952 44.696 108.355 45.592C107.8 46.488 107.501 46.9573 107.459 47C107.117 47.128 106.712 47.2133 106.243 47.256C105.816 47.2987 105.389 47.32 104.963 47.32C104.493 47.32 104.045 47.2987 103.619 47.256C103.235 47.2133 102.979 47.1707 102.851 47.128C103.363 46.4453 104.045 45.528 104.899 44.376C105.752 43.224 106.648 41.9653 107.587 40.6C108.568 39.192 109.507 37.8053 110.403 36.44C111.341 35.0747 112.152 33.8373 112.835 32.728C113.517 31.6187 114.008 30.7653 114.307 30.168C114.819 29.016 115.075 28.2267 115.075 27.8C115.075 27.3307 114.883 27.096 114.499 27.096C114.285 27.096 113.923 27.2453 113.411 27.544C112.856 27.928 112.195 28.5467 111.427 29.4C110.701 30.2107 109.955 31.128 109.187 32.152C108.419 33.176 107.715 34.1573 107.075 35.096C106.435 36.0347 105.944 36.7813 105.603 37.336C105.517 37.3787 105.411 37.4 105.283 37.4C105.112 37.4 104.984 37.336 104.899 37.208C104.813 37.08 104.792 36.9307 104.835 36.76C105.133 36.2907 105.624 35.5867 106.307 34.648C106.989 33.6667 107.736 32.6213 108.547 31.512C109.4 30.4027 110.211 29.4 110.979 28.504C111.747 27.5653 112.365 26.9253 112.835 26.584C113.731 25.944 114.584 25.624 115.395 25.624C116.12 25.624 116.696 25.88 117.123 26.392C117.549 26.8613 117.763 27.5013 117.763 28.312C117.763 29.4213 117.485 30.68 116.931 32.088C117.144 31.7893 117.592 31.32 118.275 30.68C118.957 29.9973 119.64 29.336 120.323 28.696C121.048 28.056 121.517 27.672 121.731 27.544C122.456 27.16 123.139 26.8827 123.779 26.712C124.461 26.5413 125.08 26.456 125.635 26.456C126.701 26.456 127.448 26.712 127.875 27.224C128.131 27.48 128.259 27.8853 128.259 28.44C128.259 28.9947 128.131 29.6133 127.875 30.296C127.619 30.9787 127.32 31.6187 126.979 32.216C127.747 31.4053 128.557 30.6373 129.411 29.912C130.264 29.1867 131.16 28.5467 132.099 27.992C132.952 27.48 133.72 27.1173 134.403 26.904C135.128 26.648 135.768 26.52 136.323 26.52C137.987 26.52 138.819 27.3733 138.819 29.08C138.819 29.72 138.648 30.4667 138.307 31.32C138.008 32.1733 137.496 33.0693 136.771 34.008C135.96 35.0747 134.915 36.44 133.635 38.104C132.397 39.768 131.416 41.368 130.691 42.904C130.179 43.9707 129.923 44.824 129.923 45.464C129.923 46.3173 130.328 46.744 131.139 46.744C131.779 46.744 132.632 46.424 133.699 45.784C134.979 45.016 136.344 43.864 137.795 42.328C139.288 40.792 140.696 38.8933 142.019 36.632C142.147 36.504 142.317 36.44 142.531 36.44C142.915 36.44 143 36.696 142.787 37.208C141.592 39.1707 140.312 40.9627 138.947 42.584C137.624 44.2053 136.259 45.5067 134.851 46.488C133.443 47.4693 132.035 47.96 130.627 47.96ZM145.864 47.896C144.882 47.896 143.965 47.6613 143.112 47.192C142.301 46.7227 141.682 45.9547 141.256 44.888C140.957 44.1627 140.808 43.2453 140.808 42.136C140.808 40.728 141.064 39.2987 141.576 37.848C142.344 35.5867 143.432 33.6027 144.84 31.896C146.248 30.1467 147.805 28.7813 149.512 27.8C151.261 26.776 153.01 26.264 154.76 26.264C156.338 26.264 157.49 26.6907 158.216 27.544C158.941 28.3973 159.304 29.4853 159.304 30.808C159.304 31.576 159.197 32.3867 158.984 33.24C158.813 34.0933 158.578 34.9467 158.28 35.8C157.853 36.9947 157.298 38.0827 156.616 39.064C155.933 40.0453 155.357 40.8133 154.888 41.368C155.826 41.88 156.786 41.9227 157.768 41.496C158.792 41.0267 159.73 40.344 160.584 39.448C161.437 38.5093 162.12 37.6347 162.632 36.824C162.717 36.6533 162.824 36.5467 162.952 36.504C163.122 36.4613 163.229 36.44 163.272 36.44C163.698 36.44 163.784 36.696 163.528 37.208C162.12 39.512 160.562 41.1333 158.856 42.072C157.149 42.968 155.634 43.0107 154.312 42.2L154.184 42.392C153.544 43.3307 152.84 44.2053 152.072 45.016C151.304 45.784 150.45 46.424 149.512 46.936C148.957 47.2347 148.36 47.4693 147.72 47.64C147.08 47.8107 146.461 47.896 145.864 47.896ZM146.44 46.808C147.336 46.808 148.296 46.5307 149.32 45.976C150.216 45.464 151.026 44.824 151.752 44.056C152.52 43.288 153.138 42.5627 153.608 41.88C153.138 41.6667 152.733 41.2827 152.392 40.728C152.05 40.1307 151.88 39.4053 151.88 38.552C151.88 37.656 152.05 36.696 152.392 35.672C152.776 34.6053 153.288 33.7093 153.928 32.984C154.61 32.2587 155.357 31.896 156.168 31.896C156.68 31.896 157.085 32.024 157.384 32.28C157.725 32.536 157.896 32.8347 157.896 33.176C157.981 32.9627 158.045 32.6427 158.088 32.216C158.173 31.7893 158.216 31.32 158.216 30.808C158.216 29.6987 158.002 28.9093 157.576 28.44C157.149 27.928 156.573 27.672 155.848 27.672C155.549 27.672 155.229 27.7147 154.888 27.8C154.589 27.8853 154.269 27.992 153.928 28.12C152.349 28.76 150.728 29.9547 149.064 31.704C147.442 33.4533 146.205 35.3947 145.352 37.528C145.01 38.3813 144.69 39.384 144.392 40.536C144.093 41.688 143.944 42.7547 143.944 43.736C143.944 44.8453 144.178 45.6347 144.648 46.104C145.16 46.5733 145.757 46.808 146.44 46.808ZM168.598 47.64C167.744 47.64 166.976 47.384 166.294 46.872C165.654 46.36 165.334 45.6347 165.334 44.696C165.334 43.6293 165.611 42.4773 166.166 41.24C166.763 40.0027 167.403 38.8933 168.086 37.912C168.768 36.888 169.216 36.2267 169.43 35.928C170.198 34.904 170.902 33.8587 171.542 32.792C172.224 31.6827 172.566 30.7867 172.566 30.104C172.566 29.464 172.288 29.0587 171.734 28.888C171.264 28.7173 170.774 28.5467 170.262 28.376C169.75 28.1627 169.366 28.0347 169.11 27.992C168.982 28.2053 168.683 28.7173 168.214 29.528C167.744 30.296 167.19 31.192 166.55 32.216C165.952 33.1973 165.376 34.1573 164.822 35.096C164.267 36.0347 163.84 36.7387 163.542 37.208C163.286 37.5067 163.072 37.656 162.902 37.656C162.731 37.656 162.603 37.5707 162.518 37.4C162.475 37.2293 162.518 37.0373 162.646 36.824C163.926 34.8187 165.056 32.9413 166.038 31.192C167.019 29.4427 167.659 28.3333 167.958 27.864C167.531 27.5653 167.19 27.0533 166.934 26.328C166.678 25.6027 166.55 24.856 166.55 24.088C166.55 23.2347 166.72 22.4667 167.062 21.784C167.403 21.1013 167.979 20.76 168.79 20.76C169.344 20.76 169.728 21.0373 169.942 21.592C170.155 22.104 170.262 22.7013 170.262 23.384C170.262 23.9813 170.198 24.5573 170.07 25.112C169.942 25.6667 169.835 26.0507 169.75 26.264L169.302 27.288C169.814 27.3307 170.582 27.416 171.606 27.544C172.63 27.672 173.696 27.8213 174.806 27.992C175.446 28.0773 175.958 28.312 176.342 28.696C176.768 29.08 176.982 29.592 176.982 30.232C176.982 30.872 176.768 31.64 176.342 32.536C175.915 33.432 175.19 34.456 174.166 35.608C173.654 36.2053 173.035 36.9947 172.31 37.976C171.584 38.9573 170.902 39.9173 170.262 40.856C169.622 41.752 169.152 42.456 168.854 42.968C168.299 43.864 168.022 44.6747 168.022 45.4C168.022 46.2107 168.47 46.616 169.366 46.616C170.347 46.616 171.392 46.2533 172.502 45.528C173.611 44.76 174.699 43.8213 175.766 42.712C176.832 41.6027 177.771 40.5147 178.582 39.448C179.435 38.3387 180.054 37.464 180.438 36.824C180.608 36.5253 180.843 36.376 181.142 36.376C181.355 36.376 181.462 36.4827 181.462 36.696C181.462 36.9093 181.419 37.08 181.334 37.208C180.907 37.848 180.203 38.808 179.222 40.088C178.283 41.368 177.152 42.6693 175.83 43.992C174.507 45.272 173.035 46.2747 171.414 47C170.902 47.2133 170.39 47.3627 169.878 47.448C169.366 47.576 168.939 47.64 168.598 47.64ZM170.282 71.896C169.087 71.896 168.127 71.576 167.402 70.936C166.634 70.3387 166.25 69.4853 166.25 68.376C166.25 67.864 166.357 67.288 166.57 66.648C166.783 66.0507 167.125 65.432 167.594 64.792C168.447 63.5973 169.706 62.2533 171.37 60.76C172.991 59.3093 174.698 57.9227 176.49 56.6C178.453 55.1067 180.33 53.784 182.122 52.632C183.957 51.5227 185.493 50.6267 186.73 49.944C188.01 49.304 188.757 48.9413 188.97 48.856C189.013 48.8133 189.269 48.152 189.738 46.872C190.25 45.5493 190.911 43.9067 191.722 41.944C192.533 39.9813 193.429 38.0187 194.41 36.056C193.941 36.7387 193.407 37.5067 192.81 38.36C192.255 39.2133 191.701 40.0027 191.146 40.728C190.634 41.4533 190.207 42.008 189.866 42.392C189.269 43.1173 188.565 43.8853 187.754 44.696C186.943 45.5067 186.069 46.1893 185.13 46.744C184.234 47.2987 183.317 47.576 182.378 47.576C181.354 47.576 180.565 47.2773 180.01 46.68C179.455 46.0827 179.178 45.2507 179.178 44.184C179.178 42.9893 179.413 41.752 179.882 40.472C180.394 39.192 180.842 38.1893 181.226 37.464C181.183 37.5067 181.119 37.528 181.034 37.528C180.863 37.528 180.714 37.4427 180.586 37.272C180.458 37.1013 180.437 36.952 180.522 36.824C180.863 36.312 181.375 35.6293 182.058 34.776C182.741 33.88 183.466 32.92 184.234 31.896C185.002 30.872 185.727 29.8907 186.41 28.952C187.093 28.0133 187.626 27.2667 188.01 26.712C188.351 26.6267 188.799 26.4987 189.354 26.328C189.909 26.1573 190.463 26.072 191.018 26.072C191.615 26.072 192.063 26.2427 192.362 26.584C191.893 27.3093 191.231 28.2693 190.378 29.464C189.525 30.6587 188.586 31.96 187.562 33.368C186.581 34.776 185.642 36.2267 184.746 37.72C183.85 39.2133 183.103 40.6427 182.506 42.008C181.951 43.3307 181.674 44.4827 181.674 45.464C181.674 46.1893 182.058 46.552 182.826 46.552C183.722 46.5093 184.767 45.9547 185.962 44.888C187.199 43.7787 188.479 42.392 189.802 40.728C191.125 39.064 192.362 37.3573 193.514 35.608C195.007 33.3893 196.287 31.64 197.354 30.36C198.421 29.08 199.167 28.2053 199.594 27.736C200.021 27.2667 200.426 26.84 200.81 26.456C201.194 26.0293 201.557 25.6667 201.898 25.368C202.495 24.8987 203.093 24.664 203.69 24.664C204.159 24.664 204.543 24.792 204.842 25.048C205.183 25.2613 205.354 25.5173 205.354 25.816C205.354 26.1147 205.141 26.392 204.714 26.648C203.391 27.3307 202.154 28.0987 201.002 28.952C199.85 29.7627 198.826 30.7653 197.93 31.96C196.991 33.1973 196.181 34.7973 195.498 36.76C194.858 38.68 194.303 40.6 193.834 42.52C193.407 44.44 193.002 46.04 192.618 47.32C193.301 46.8933 194.239 46.168 195.434 45.144C196.671 44.0773 197.951 42.8187 199.274 41.368C200.597 39.8747 201.727 38.3173 202.666 36.696C202.879 36.4827 203.05 36.376 203.178 36.376C203.306 36.376 203.413 36.44 203.498 36.568C203.626 36.6533 203.669 36.76 203.626 36.888C202.431 38.9787 201.066 40.8773 199.53 42.584C197.994 44.2907 196.565 45.6773 195.242 46.744C193.919 47.8107 192.959 48.472 192.362 48.728C191.466 51.288 190.271 53.9973 188.778 56.856C187.327 59.7573 185.45 62.488 183.146 65.048C182.165 66.1573 180.949 67.224 179.498 68.248C178.047 69.3147 176.511 70.1893 174.89 70.872C173.269 71.5547 171.733 71.896 170.282 71.896ZM169.898 70.872C170.879 70.872 172.053 70.3813 173.418 69.4C174.741 68.4187 176.127 67.1387 177.578 65.56C179.071 63.9813 180.522 62.2747 181.93 60.44C183.338 58.6053 184.618 56.8133 185.77 55.064C186.922 53.3147 187.839 51.7787 188.522 50.456C187.925 50.7547 187.007 51.2667 185.77 51.992C184.533 52.76 183.125 53.656 181.546 54.68C179.967 55.7467 178.367 56.8987 176.746 58.136C175.167 59.3733 173.695 60.6107 172.33 61.848C170.922 63.128 169.813 64.344 169.002 65.496C168.149 66.648 167.722 67.6933 167.722 68.632C167.722 69.3147 167.914 69.848 168.298 70.232C168.682 70.6587 169.215 70.872 169.898 70.872ZM243.335 63.704C243.164 63.704 243.036 63.6827 242.951 63.64C242.866 63.5973 242.78 63.5547 242.695 63.512C243.164 63.1707 243.399 62.7013 243.399 62.104C243.399 61.592 243.228 61.0587 242.887 60.504C242.588 59.992 242.268 59.5867 241.927 59.288C241.543 58.9467 241.116 58.5627 240.647 58.136C240.22 57.7093 239.836 57.0907 239.495 56.28C239.239 55.768 239.111 55.2133 239.111 54.616C239.111 54.0187 239.239 53.4427 239.495 52.888C239.751 52.376 240.114 51.9707 240.583 51.672C240.284 51.3733 239.858 51.1173 239.303 50.904C238.791 50.6907 238.236 50.584 237.639 50.584H237.063C236.466 50.584 235.911 50.648 235.399 50.776C234.674 51.032 233.927 51.2453 233.159 51.416C232.434 51.5867 231.708 51.7147 230.983 51.8C230.94 52.568 230.983 53.5493 231.111 54.744C231.282 55.9813 231.623 57.0907 232.135 58.072C232.647 59.0533 233.415 59.5867 234.439 59.672V60.248C233.5 60.2907 232.711 59.928 232.071 59.16C231.431 58.4347 230.94 57.5813 230.599 56.6C230.471 57.1547 230.236 57.688 229.895 58.2C229.596 58.712 229.17 59.096 228.615 59.352C228.572 59.9067 228.274 60.4187 227.719 60.888C227.164 61.4 226.439 61.656 225.543 61.656C224.988 61.656 224.37 61.528 223.687 61.272C223.004 61.016 222.407 60.6747 221.895 60.248C221.383 59.8213 221.063 59.3733 220.935 58.904V58.712C220.935 58.328 221.02 58.0933 221.191 58.008C221.276 58.3067 221.426 58.4987 221.639 58.584C221.895 58.712 222.151 58.776 222.407 58.776C222.962 58.776 223.431 58.6267 223.815 58.328C224.114 58.1573 224.455 57.9653 224.839 57.752C225.223 57.5387 225.735 57.432 226.375 57.432C226.844 57.432 227.292 57.56 227.719 57.816C228.146 58.072 228.423 58.4347 228.551 58.904C229.148 58.6053 229.575 58.008 229.831 57.112C230.087 56.2587 230.194 55.5547 230.151 55C230.023 54.4027 229.938 53.8267 229.895 53.272C229.852 52.76 229.831 52.312 229.831 51.928C227.527 52.0133 225.415 51.6507 223.495 50.84C221.575 50.0293 220.039 48.7493 218.887 47C217.735 45.2933 217.159 43.16 217.159 40.6C217.159 39.32 217.308 37.9547 217.607 36.504C217.948 35.0107 218.482 33.432 219.207 31.768C220.188 29.5067 221.511 27.288 223.175 25.112C224.882 22.936 226.652 20.9307 228.487 19.096C227.634 18.7547 226.759 18.392 225.863 18.008C225.01 17.5813 224.178 17.1547 223.367 16.728C222.599 16.472 221.831 16.3013 221.063 16.216C219.911 16.216 219.036 16.4507 218.439 16.92C218.78 17.176 219.036 17.5173 219.207 17.944C219.378 18.328 219.463 18.7547 219.463 19.224C219.463 19.9493 219.314 20.5467 219.015 21.016C218.631 21.6987 218.204 22.2107 217.735 22.552C217.308 22.8507 216.924 23.128 216.583 23.384C216.242 23.5973 215.9 23.96 215.559 24.472C215.26 24.9413 215.111 25.4107 215.111 25.88C215.111 26.264 215.26 26.6053 215.559 26.904C215.474 26.9893 215.324 27.032 215.111 27.032C214.898 27.032 214.642 26.9467 214.343 26.776C213.788 26.4347 213.383 25.8587 213.127 25.048C212.871 24.1947 212.743 23.32 212.743 22.424C212.743 21.144 212.956 20.0347 213.383 19.096C213.767 18.2427 214.3 17.6027 214.983 17.176C215.708 16.7067 216.391 16.472 217.031 16.472C217.202 16.472 217.351 16.4933 217.479 16.536C217.607 16.536 217.735 16.5573 217.863 16.6C218.716 15.832 219.719 15.448 220.871 15.448H221.063C219.954 14.68 219.1 13.9973 218.503 13.4C217.522 12.3333 216.796 11.288 216.327 10.264C215.9 9.19733 215.687 8.19466 215.687 7.256C215.687 5.50666 216.37 4.056 217.735 2.904C219.1 1.752 220.892 1.176 223.111 1.176C224.519 1.176 226.055 1.45333 227.719 2.008C229.426 2.52 231.196 3.39466 233.031 4.632C233.159 4.632 233.372 4.78133 233.671 5.08C233.884 5.25067 234.183 5.336 234.567 5.336C235.036 5.336 235.484 5.18666 235.911 4.888C236.38 4.58933 236.764 4.29066 237.063 3.992C237.703 3.39466 238.492 2.86133 239.431 2.392C240.37 1.88 241.223 1.624 241.991 1.624C243.1 1.624 243.954 1.944 244.551 2.584C245.148 3.18133 245.49 3.864 245.575 4.632C245.319 4.248 244.85 4.056 244.167 4.056C243.484 4.056 242.844 4.29067 242.247 4.76C241.65 5.18666 241.116 5.61333 240.647 6.04C240.092 6.46666 239.516 6.872 238.919 7.256C238.364 7.59733 237.639 7.768 236.743 7.768C236.572 7.768 236.402 7.768 236.231 7.768C236.103 7.768 235.932 7.74666 235.719 7.704C235.292 7.61866 234.844 7.42666 234.375 7.128C233.948 6.78666 233.586 6.40266 233.287 5.976C233.074 5.76266 232.839 5.528 232.583 5.272C232.327 5.016 232.156 4.86666 232.071 4.824C231.772 4.61066 231.452 4.41866 231.111 4.248C230.812 4.07733 230.514 3.928 230.215 3.8C230.343 3.928 230.428 4.03466 230.471 4.12C231.282 5.016 231.687 6.01866 231.687 7.128C231.687 7.85333 231.495 8.472 231.111 8.984C230.727 9.45333 230.258 9.688 229.703 9.688C229.319 9.688 228.914 9.53867 228.487 9.24C228.188 9.02666 228.039 8.81333 228.039 8.6C228.039 8.38667 228.188 8.32266 228.487 8.408C228.828 8.49333 229.17 8.344 229.511 7.96C229.852 7.576 230.087 7.128 230.215 6.616C230.258 6.44533 230.279 6.27466 230.279 6.104C230.322 5.89066 230.343 5.69866 230.343 5.528C230.343 5.18667 230.3 4.84533 230.215 4.504C230.13 4.16266 229.98 3.84266 229.767 3.544C227.548 2.52 225.543 2.008 223.751 2.008C221.916 2.008 220.444 2.47733 219.335 3.416C218.268 4.35466 217.735 5.57066 217.735 7.064C217.735 7.96 217.948 8.89866 218.375 9.88C218.802 10.8613 219.484 11.864 220.423 12.888C221.319 13.8267 222.514 14.7653 224.007 15.704C225.5 16.6427 227.25 17.5387 229.255 18.392C232.626 15.2347 236.423 12.696 240.647 10.776C244.871 8.81333 249.202 7.832 253.639 7.832C256.967 7.832 259.442 8.408 261.063 9.56C262.727 10.712 263.559 12.0773 263.559 13.656C263.559 15.0213 262.919 16.408 261.639 17.816C260.402 19.224 258.503 20.3973 255.943 21.336C254.492 21.8907 252.935 22.296 251.271 22.552C249.65 22.7653 247.986 22.872 246.279 22.872C243.079 22.872 239.9 22.5093 236.743 21.784C236.359 21.8267 236.018 21.9333 235.719 22.104C235.42 22.232 235.186 22.4027 235.015 22.616C234.546 23 234.311 23.4907 234.311 24.088C234.311 24.344 234.396 24.5573 234.567 24.728C234.78 24.8987 234.866 25.0267 234.823 25.112C234.78 25.1973 234.674 25.24 234.503 25.24C234.204 25.24 233.842 25.112 233.415 24.856C233.031 24.5573 232.839 24.1307 232.839 23.576C232.839 23.0213 233.074 22.552 233.543 22.168C234.012 21.784 234.567 21.528 235.207 21.4C234.652 21.272 234.098 21.1227 233.543 20.952C232.988 20.7813 232.476 20.6107 232.007 20.44C230.77 21.7627 229.575 23.2347 228.423 24.856C227.271 26.4347 226.226 28.0987 225.287 29.848C225.287 29.8907 225.266 29.9333 225.223 29.976C225.223 29.976 225.223 30.0187 225.223 30.104C225.052 30.5733 224.903 31.0853 224.775 31.64C224.69 32.152 224.647 32.664 224.647 33.176C224.647 34.072 224.796 34.904 225.095 35.672C225.436 36.44 225.863 36.952 226.375 37.208L226.631 37.336C226.887 36.952 227.228 36.6747 227.655 36.504C228.124 36.2907 228.594 36.184 229.063 36.184C229.618 36.184 230.066 36.2693 230.407 36.44C231.004 36.6533 231.474 36.9093 231.815 37.208C232.156 37.5067 232.476 37.8267 232.775 38.168C233.202 37.1867 233.65 36.248 234.119 35.352C234.631 34.4133 235.186 33.56 235.783 32.792C237.148 31.0427 238.556 29.784 240.007 29.016C241.5 28.2053 242.887 27.8 244.167 27.8C245.916 27.8 247.346 28.3973 248.455 29.592C249.607 30.7867 250.183 32.3227 250.183 34.2C250.183 35.1813 249.991 36.2693 249.607 37.464C249.223 38.616 248.604 39.8107 247.751 41.048C246.556 42.7547 245.106 44.376 243.399 45.912C241.735 47.4053 239.922 48.6427 237.959 49.624L238.023 49.688C239.346 49.816 240.434 50.3707 241.287 51.352C241.372 51.3093 241.479 51.288 241.607 51.288C241.735 51.288 241.842 51.288 241.927 51.288C242.738 51.288 243.548 51.5867 244.359 52.184C245.17 52.824 245.767 53.6987 246.151 54.808C246.407 55.4907 246.535 56.3653 246.535 57.432C246.535 58.6267 246.322 59.8213 245.895 61.016C245.511 62.2107 244.935 63.0213 244.167 63.448C243.826 63.6187 243.548 63.704 243.335 63.704ZM244.359 21.528C248.412 21.528 252.039 20.9733 255.239 19.864C257.372 19.1387 259.015 18.1787 260.167 16.984C261.319 15.7467 261.895 14.552 261.895 13.4C261.895 12.2907 261.276 11.3093 260.039 10.456C258.844 9.56 256.946 9.112 254.343 9.112C252.679 9.112 250.823 9.45333 248.775 10.136C246.77 10.776 244.743 11.6293 242.695 12.696C240.647 13.7627 238.748 14.9147 236.999 16.152C235.25 17.3467 233.82 18.4987 232.711 19.608C234.375 20.248 236.21 20.7387 238.215 21.08C240.22 21.3787 242.268 21.528 244.359 21.528ZM231.111 50.456C233.116 50.1147 235.079 49.3893 236.999 48.28C238.962 47.2133 240.754 45.912 242.375 44.376C244.039 42.84 245.404 41.24 246.471 39.576C247.154 38.552 247.644 37.5707 247.943 36.632C248.242 35.6507 248.391 34.7547 248.391 33.944C248.391 32.4507 247.964 31.2347 247.111 30.296C246.3 29.3573 245.212 28.888 243.847 28.888C242.78 28.888 241.607 29.2507 240.327 29.976C239.047 30.7013 237.788 31.896 236.551 33.56C235.314 35.2667 234.311 37.0373 233.543 38.872C234.098 39.2987 234.695 39.512 235.335 39.512C235.89 39.512 236.295 39.32 236.551 38.936C236.679 39.064 236.743 39.2347 236.743 39.448C236.743 40.2587 236.274 40.8987 235.335 41.368C234.439 41.7947 233.458 42.0933 232.391 42.264C232.007 43.5867 231.708 44.952 231.495 46.36C231.324 47.7253 231.196 49.0907 231.111 50.456ZM229.959 50.584C230.002 49.3893 230.13 48.088 230.343 46.68C230.556 45.2293 230.876 43.7787 231.303 42.328C230.492 42.328 229.831 42.2427 229.319 42.072C228.252 41.7307 227.442 41.1547 226.887 40.344C226.332 39.5333 226.14 38.7867 226.311 38.104C226.311 38.0187 226.354 37.8907 226.439 37.72H226.375C225.948 37.72 225.479 37.3573 224.967 36.632C224.455 35.9067 224.135 35.16 224.007 34.392C223.964 34.2213 223.943 33.944 223.943 33.56C223.943 33.3467 223.943 33.1333 223.943 32.92C223.943 32.7067 223.964 32.5147 224.007 32.344C223.836 32.6853 223.666 33.048 223.495 33.432C223.367 33.7733 223.239 34.1147 223.111 34.456C222.471 35.992 222.002 37.4427 221.703 38.808C221.447 40.1307 221.319 41.3467 221.319 42.456C221.319 45.272 222.13 47.3627 223.751 48.728C225.372 50.136 227.442 50.7547 229.959 50.584ZM254.883 47.384C253.688 47.384 252.771 46.936 252.131 46.04C251.491 45.1013 251.171 43.9067 251.171 42.456C251.171 40.8773 251.597 39.0427 252.451 36.952C252.92 35.8 253.624 34.6267 254.562 33.432C255.501 32.1947 256.589 31.064 257.827 30.04C259.064 28.9733 260.387 28.12 261.795 27.48C263.245 26.7973 264.717 26.456 266.211 26.456C267.363 26.456 268.152 26.7547 268.579 27.352C269.005 27.9493 269.219 28.6747 269.219 29.528C269.219 30.3387 269.091 31.1707 268.835 32.024L272.419 26.584C272.717 26.3707 273.379 26.264 274.403 26.264C275.171 26.264 275.896 26.3493 276.579 26.52C277.304 26.6907 277.517 26.9467 277.219 27.288C276.877 27.7147 276.28 28.376 275.427 29.272C274.616 30.1253 273.72 31.1493 272.739 32.344C271.8 33.5387 270.904 34.7973 270.051 36.12C269.624 36.8453 268.984 37.912 268.131 39.32C267.32 40.728 266.68 42.072 266.211 43.352C265.955 44.12 265.827 44.7387 265.827 45.208C265.827 46.104 266.211 46.552 266.979 46.552C267.405 46.552 267.981 46.4027 268.707 46.104C269.432 45.7627 270.136 45.3147 270.819 44.76C272.184 43.6507 273.379 42.328 274.403 40.792C275.427 39.2133 276.344 37.8267 277.155 36.632C277.197 36.5893 277.24 36.5467 277.283 36.504C277.368 36.4613 277.496 36.44 277.667 36.44C277.837 36.44 277.965 36.5253 278.051 36.696C278.136 36.824 278.093 36.9947 277.923 37.208C276.728 39 275.555 40.6853 274.403 42.264C273.251 43.8 272.077 45.0373 270.883 45.976C269.688 46.9147 268.387 47.384 266.979 47.384C265.869 47.384 264.973 47.064 264.291 46.424C263.651 45.7413 263.331 44.824 263.331 43.672C263.331 43.16 263.373 42.6267 263.458 42.072C263.587 41.5173 263.736 41.0053 263.907 40.536C263.224 41.432 262.371 42.4133 261.347 43.48C260.365 44.5467 259.32 45.464 258.211 46.232C257.101 47 255.992 47.384 254.883 47.384ZM255.459 46.168C256.312 46.168 257.208 45.8267 258.147 45.144C259.128 44.4613 260.109 43.5867 261.091 42.52C262.072 41.4107 262.968 40.2373 263.779 39C264.461 37.976 265.123 36.888 265.763 35.736C266.445 34.584 267 33.4533 267.427 32.344C267.896 31.2347 268.131 30.232 268.131 29.336C268.131 27.9707 267.64 27.288 266.659 27.288C265.976 27.288 265.187 27.5867 264.291 28.184C263.395 28.7813 262.477 29.5493 261.539 30.488C260.643 31.4267 259.789 32.4507 258.979 33.56C258.211 34.6267 257.592 35.672 257.123 36.696C256.995 36.952 256.675 37.5707 256.163 38.552C255.693 39.5333 255.224 40.6 254.755 41.752C254.328 42.904 254.115 43.9067 254.115 44.76C254.115 45.6987 254.563 46.168 255.459 46.168ZM282.973 47.64C282.119 47.64 281.351 47.384 280.669 46.872C280.029 46.36 279.709 45.6347 279.709 44.696C279.709 43.6293 279.986 42.4773 280.541 41.24C281.138 40.0027 281.778 38.8933 282.461 37.912C283.143 36.888 283.591 36.2267 283.805 35.928C284.573 34.904 285.277 33.8587 285.917 32.792C286.599 31.6827 286.941 30.7867 286.941 30.104C286.941 29.464 286.663 29.0587 286.109 28.888C285.639 28.7173 285.149 28.5467 284.637 28.376C284.125 28.1627 283.741 28.0347 283.485 27.992C283.357 28.2053 283.058 28.7173 282.589 29.528C282.119 30.296 281.565 31.192 280.925 32.216C280.327 33.1973 279.751 34.1573 279.197 35.096C278.642 36.0347 278.215 36.7387 277.917 37.208C277.661 37.5067 277.447 37.656 277.277 37.656C277.106 37.656 276.978 37.5707 276.893 37.4C276.85 37.2293 276.893 37.0373 277.021 36.824C278.301 34.8187 279.431 32.9413 280.413 31.192C281.394 29.4427 282.034 28.3333 282.333 27.864C281.906 27.5653 281.565 27.0533 281.309 26.328C281.053 25.6027 280.925 24.856 280.925 24.088C280.925 23.2347 281.095 22.4667 281.437 21.784C281.778 21.1013 282.354 20.76 283.165 20.76C283.719 20.76 284.103 21.0373 284.317 21.592C284.53 22.104 284.637 22.7013 284.637 23.384C284.637 23.9813 284.573 24.5573 284.445 25.112C284.317 25.6667 284.21 26.0507 284.125 26.264L283.677 27.288C284.189 27.3307 284.957 27.416 285.981 27.544C287.005 27.672 288.071 27.8213 289.181 27.992C289.821 28.0773 290.333 28.312 290.717 28.696C291.143 29.08 291.357 29.592 291.357 30.232C291.357 30.872 291.143 31.64 290.717 32.536C290.29 33.432 289.565 34.456 288.541 35.608C288.029 36.2053 287.41 36.9947 286.685 37.976C285.959 38.9573 285.277 39.9173 284.637 40.856C283.997 41.752 283.527 42.456 283.229 42.968C282.674 43.864 282.397 44.6747 282.397 45.4C282.397 46.2107 282.845 46.616 283.741 46.616C284.722 46.616 285.767 46.2533 286.877 45.528C287.986 44.76 289.074 43.8213 290.141 42.712C291.207 41.6027 292.146 40.5147 292.957 39.448C293.81 38.3387 294.429 37.464 294.813 36.824C294.983 36.5253 295.218 36.376 295.517 36.376C295.73 36.376 295.837 36.4827 295.837 36.696C295.837 36.9093 295.794 37.08 295.709 37.208C295.282 37.848 294.578 38.808 293.597 40.088C292.658 41.368 291.527 42.6693 290.205 43.992C288.882 45.272 287.41 46.2747 285.789 47C285.277 47.2133 284.765 47.3627 284.253 47.448C283.741 47.576 283.314 47.64 282.973 47.64ZM308.145 47.704C307.334 47.704 306.63 47.448 306.033 46.936C305.436 46.424 305.137 45.5707 305.137 44.376C305.137 43.7787 305.201 43.16 305.329 42.52C305.5 41.8373 305.67 41.2187 305.841 40.664C305.158 41.56 304.326 42.5413 303.345 43.608C302.364 44.6747 301.318 45.592 300.209 46.36C299.1 47.128 297.969 47.512 296.817 47.512C295.665 47.512 294.769 47.0427 294.129 46.104C293.532 45.1653 293.233 43.9707 293.233 42.52C293.233 40.8133 293.617 39.0427 294.385 37.208C294.726 36.44 295.345 35.4587 296.241 34.264C297.137 33.0693 298.225 31.896 299.505 30.744C300.785 29.592 302.172 28.632 303.665 27.864C305.158 27.0533 306.652 26.648 308.145 26.648C309.254 26.648 310.022 26.9467 310.449 27.544C310.918 28.0987 311.153 28.7813 311.153 29.592C311.153 29.976 311.11 30.3813 311.025 30.808C310.94 31.192 310.833 31.5973 310.705 32.024L319.089 18.264C319.174 18.0507 319.644 17.7947 320.497 17.496C321.35 17.1547 322.097 16.984 322.737 16.984C323.42 16.984 323.761 17.1973 323.761 17.624C323.761 17.9653 323.59 18.392 323.249 18.904L315.441 31.32C315.228 31.6613 314.822 32.28 314.225 33.176C313.628 34.0293 312.966 35.032 312.241 36.184C311.558 37.336 310.876 38.5093 310.193 39.704C310.15 39.832 309.958 40.216 309.617 40.856C309.276 41.496 308.934 42.2 308.593 42.968C308.166 43.9493 307.953 44.76 307.953 45.4C307.953 46.2533 308.316 46.68 309.041 46.68C309.766 46.68 310.598 46.296 311.537 45.528C312.348 44.888 313.158 44.12 313.969 43.224C314.78 42.328 315.526 41.4107 316.209 40.472C316.934 39.5333 317.51 38.7227 317.937 38.04C318.406 37.3147 318.705 36.8453 318.833 36.632C318.961 36.4613 319.11 36.376 319.281 36.376C319.665 36.376 319.814 36.568 319.729 36.952C319.388 37.5493 318.833 38.4453 318.065 39.64C317.34 40.8347 316.444 42.0507 315.377 43.288C314.353 44.5253 313.244 45.5493 312.049 46.36C311.494 46.744 310.854 47.064 310.129 47.32C309.446 47.576 308.785 47.704 308.145 47.704ZM297.329 46.424C298.31 46.424 299.334 45.9973 300.401 45.144C301.51 44.2907 302.598 43.2027 303.665 41.88C304.774 40.5573 305.777 39.1707 306.673 37.72C307.569 36.2693 308.294 34.9253 308.849 33.688C309.446 32.4507 309.809 31.512 309.937 30.872C309.98 30.6587 310.001 30.4667 310.001 30.296C310.044 30.0827 310.065 29.8907 310.065 29.72C310.065 28.2693 309.553 27.544 308.529 27.544C307.846 27.544 307.057 27.8427 306.161 28.44C305.265 29.0373 304.348 29.8053 303.409 30.744C302.513 31.6827 301.66 32.7067 300.849 33.816C300.081 34.8827 299.462 35.928 298.993 36.952C298.865 37.208 298.545 37.8267 298.033 38.808C297.564 39.7893 297.094 40.856 296.625 42.008C296.198 43.16 295.985 44.1627 295.985 45.016C295.985 45.9547 296.433 46.424 297.329 46.424ZM353.187 77.016C352.803 77.016 352.419 76.9093 352.035 76.696C351.651 76.5253 351.331 76.2267 351.075 75.8L350.947 75.672C350.861 75.672 350.755 75.672 350.627 75.672C350.541 75.7147 350.456 75.736 350.371 75.736C349.56 75.736 348.877 75.5013 348.323 75.032C347.811 74.6053 347.555 74.0507 347.555 73.368C347.555 72.6 347.896 71.8107 348.579 71C348.792 70.744 349.069 70.4667 349.411 70.168C349.795 69.912 350.2 69.656 350.627 69.4C349.859 69.5707 349.069 69.6987 348.259 69.784C347.448 69.8693 346.616 69.912 345.763 69.912C344.995 69.912 344.205 69.8693 343.395 69.784C342.584 69.7413 341.752 69.6347 340.899 69.464C337.656 68.9093 335.011 67.8 332.963 66.136C330.915 64.5147 329.4 62.5733 328.419 60.312C327.437 58.0933 326.947 55.8107 326.947 53.464C326.947 51.8427 327.16 50.2427 327.587 48.664C328.013 47.128 328.632 45.6987 329.443 44.376C330.509 42.6693 331.853 41.2613 333.475 40.152C335.096 39 336.845 38.168 338.723 37.656C340.643 37.144 342.499 36.9307 344.291 37.016C345.229 36.9307 345.997 36.6533 346.595 36.184C347.235 35.7147 347.704 35.2027 348.003 34.648C347.405 34.4773 346.957 34.1147 346.659 33.56C346.36 32.9627 346.211 32.3653 346.211 31.768C346.211 31.5547 346.211 31.3627 346.211 31.192C346.253 31.0213 346.296 30.8507 346.339 30.68C346.552 29.9547 346.808 29.4 347.107 29.016C347.448 28.5893 347.768 28.2267 348.067 27.928C348.323 27.672 348.536 27.3307 348.707 26.904C348.92 26.4773 349.027 26.0507 349.027 25.624C349.027 25.0267 348.792 24.5787 348.323 24.28C348.451 24.152 348.643 24.088 348.899 24.088C349.539 24.088 350.093 24.408 350.563 25.048C351.075 25.688 351.459 26.4773 351.715 27.416C351.971 28.312 352.099 29.208 352.099 30.104C352.099 31.4693 351.715 32.5787 350.947 33.432C350.221 34.2853 349.475 34.7333 348.707 34.776C348.195 35.928 347.32 36.7387 346.083 37.208C346.296 37.2507 346.509 37.2933 346.723 37.336C346.979 37.3787 347.213 37.4427 347.427 37.528C349.56 38.168 351.352 39.2773 352.803 40.856C354.253 42.392 354.979 44.2693 354.979 46.488C354.979 47.9387 354.637 49.432 353.955 50.968C354.381 51.0107 354.872 51.1173 355.427 51.288C355.981 51.4587 356.387 51.8853 356.643 52.568C356.771 52.8667 356.835 53.1653 356.835 53.464C356.835 54.232 356.557 55.0427 356.003 55.896C355.448 56.792 354.744 57.624 353.891 58.392C353.037 59.16 352.141 59.8213 351.203 60.376C350.307 60.9307 349.389 61.208 348.451 61.208C348.195 61.208 348.024 61.1867 347.939 61.144C348.536 60.9307 348.92 60.5253 349.091 59.928C349.304 59.3733 349.411 58.7547 349.411 58.072C349.411 57.432 349.347 56.792 349.219 56.152C349.133 55.512 349.027 54.9787 348.899 54.552C348.771 54.04 348.707 53.5493 348.707 53.08C348.707 52.2693 348.899 51.5867 349.283 51.032C349.667 50.4773 350.157 50.1787 350.755 50.136C351.48 50.0507 352.035 50.0933 352.419 50.264C352.803 50.4773 353.144 50.6693 353.443 50.84C353.784 50.1147 354.019 49.432 354.147 48.792C354.275 48.152 354.339 47.5333 354.339 46.936C354.339 44.8027 353.592 43.0107 352.099 41.56C350.648 40.0667 348.856 39.064 346.723 38.552C345.784 38.296 344.76 38.168 343.651 38.168C341.432 38.168 339.235 38.744 337.059 39.896C334.925 41.048 333.176 42.7547 331.811 45.016C329.933 48.088 328.995 51.3733 328.995 54.872C328.995 56.28 329.165 57.6667 329.507 59.032C329.891 60.3973 330.488 61.656 331.299 62.808C331.256 62.6373 331.235 62.488 331.235 62.36C331.235 62.232 331.235 62.0827 331.235 61.912C331.235 60.9307 331.427 60.0987 331.811 59.416C331.683 59.3307 331.533 59.2027 331.363 59.032C331.149 58.776 331.043 58.392 331.043 57.88C331.043 57.4107 331.171 56.8987 331.427 56.344C331.683 55.832 332.067 55.3627 332.579 54.936C333.091 54.5093 333.752 54.1467 334.562 53.848C335.373 53.592 336.184 53.464 336.995 53.464C337.933 53.464 338.616 53.6773 339.043 54.104C339.299 54.2747 339.427 54.4453 339.427 54.616C339.469 54.7867 339.469 54.9147 339.427 55C339.256 54.872 339.043 54.808 338.787 54.808C338.36 54.808 337.933 55 337.507 55.384C337.123 55.8107 336.867 56.216 336.739 56.6C336.611 56.8987 336.44 57.24 336.227 57.624C336.013 58.0507 335.672 58.4987 335.203 58.968C334.648 59.5227 333.965 59.8 333.155 59.8C332.813 59.8 332.579 59.7787 332.451 59.736C332.067 60.632 331.875 61.4853 331.875 62.296C331.875 63.064 332.003 63.64 332.259 64.024C333.24 65.048 334.413 65.9227 335.779 66.648C337.187 67.416 338.851 67.9707 340.771 68.312C341.283 68.3973 341.795 68.4613 342.307 68.504C342.819 68.5467 343.309 68.568 343.779 68.568C346.509 68.568 349.048 67.9493 351.395 66.712C353.741 65.5173 355.896 63.8747 357.859 61.784C359.821 59.736 361.635 57.432 363.299 54.872C364.963 52.3547 366.477 49.7307 367.843 47C369.208 44.312 370.445 41.7093 371.555 39.192C372.707 36.6747 373.752 34.456 374.691 32.536C375.544 30.7867 376.461 29.1013 377.443 27.48C378.424 25.816 379.448 24.344 380.515 23.064C379.277 24.2587 377.976 25.6027 376.611 27.096C375.245 28.5467 373.816 29.9333 372.323 31.256C370.829 32.5787 369.272 33.6667 367.651 34.52C366.029 35.3733 364.344 35.8 362.595 35.8C360.376 35.8 358.733 35.1173 357.667 33.752C356.6 32.3867 356.067 30.7013 356.067 28.696C356.067 27.0747 356.387 25.4107 357.027 23.704L356.579 23.512C354.104 22.4453 352.291 20.9947 351.139 19.16C350.029 17.3253 349.304 15.6187 348.963 14.04C348.792 13.6133 348.536 13.2293 348.195 12.888C347.896 12.504 347.512 12.1627 347.043 11.864C346.573 12.4613 345.933 12.76 345.123 12.76C344.525 12.76 343.971 12.632 343.458 12.376C343.117 12.248 342.691 11.8853 342.179 11.288C341.667 10.648 341.112 10.1147 340.515 9.688C339.917 9.21866 339.299 8.984 338.659 8.984C338.061 8.984 337.549 9.19733 337.123 9.624C337.037 9.53866 336.995 9.432 336.995 9.304C336.995 9.09066 337.101 8.856 337.315 8.6C337.741 8.13067 338.381 7.74667 339.235 7.448C340.131 7.14933 341.069 7 342.051 7C343.16 7 344.163 7.192 345.059 7.576C345.869 7.96 346.467 8.45066 346.851 9.048C347.235 9.64533 347.427 10.2213 347.427 10.776C347.427 10.9893 347.405 11.16 347.363 11.288C347.832 11.544 348.28 11.928 348.707 12.44C348.707 12.2267 348.685 12.056 348.643 11.928C348.643 11.7573 348.643 11.5867 348.643 11.416C348.643 9.96533 349.027 8.64266 349.795 7.448C350.563 6.21067 351.544 5.208 352.739 4.44C353.933 3.62933 355.149 3.11733 356.387 2.904C356.429 2.81866 356.451 2.75466 356.451 2.712C356.451 2.62667 356.472 2.56267 356.515 2.52C357.24 0.94133 358.541 0.151997 360.419 0.151997C361.315 0.151997 362.253 0.386664 363.235 0.855999C364.216 1.32533 365.069 2.02933 365.795 2.968C366.477 3.77866 367.267 4.184 368.163 4.184C368.461 4.184 368.696 4.12 368.867 3.992C369.379 3.608 369.635 3.544 369.635 3.8C369.635 4.39733 369.357 4.952 368.803 5.464C368.291 5.976 367.736 6.27466 367.139 6.36C366.968 6.40267 366.797 6.424 366.627 6.424C366.499 6.424 366.349 6.424 366.179 6.424C365.112 6.424 364.173 6.25333 363.363 5.912C362.595 5.528 361.869 5.12267 361.187 4.696C361.272 4.952 361.315 5.16533 361.315 5.336C361.315 5.72 361.208 6.08267 360.995 6.424C360.781 6.76533 360.504 6.97866 360.163 7.064H359.843C359.587 7.064 359.458 7.02133 359.458 6.936C359.458 6.808 359.608 6.68 359.907 6.552C360.163 6.424 360.291 6.21066 360.291 5.912C360.291 5.44266 360.077 4.952 359.651 4.44C359.224 3.928 358.84 3.58666 358.499 3.416C358.157 3.33066 357.859 3.288 357.603 3.288C357.347 3.288 357.155 3.30933 357.027 3.352C356.003 3.56533 354.957 4.056 353.891 4.824C352.824 5.592 351.928 6.552 351.203 7.704C350.52 8.81333 350.179 10.0507 350.179 11.416C350.179 12.0987 350.221 12.7387 350.307 13.336C350.392 13.9333 350.499 14.5307 350.627 15.128C350.712 14.7867 350.861 14.488 351.075 14.232C351.288 13.9333 351.565 13.72 351.907 13.592C352.035 13.5067 352.163 13.464 352.291 13.464C352.461 13.464 352.632 13.464 352.803 13.464C353.784 13.464 354.381 13.6133 354.595 13.912C354.851 14.0827 354.957 14.1893 354.915 14.232C354.872 14.232 354.829 14.296 354.787 14.424C354.659 14.3813 354.467 14.36 354.211 14.36C353.571 14.36 352.909 14.552 352.227 14.936C351.587 15.2773 351.267 15.704 351.267 16.216V16.856C351.907 18.1787 352.76 19.352 353.827 20.376C354.893 21.3573 356.088 22.1467 357.411 22.744C358.392 20.4827 359.885 18.2853 361.891 16.152C363.939 14.0187 366.456 12.3333 369.443 11.096C370.851 10.4987 372.131 10.072 373.283 9.816C374.477 9.56 375.544 9.432 376.483 9.432C378.488 9.432 379.96 9.90133 380.899 10.84C381.837 11.7787 382.307 12.9307 382.307 14.296C382.307 15.8747 381.667 17.5387 380.387 19.288C379.149 21.0373 377.293 22.4667 374.819 23.576C373.453 24.1733 371.981 24.6213 370.403 24.92C368.824 25.2187 367.245 25.368 365.667 25.368C364.813 25.368 363.96 25.3253 363.107 25.24C362.296 25.1547 361.485 25.0267 360.675 24.856C359.821 26.9467 359.395 28.824 359.395 30.488C359.395 31.768 359.693 32.8133 360.291 33.624C360.931 34.392 361.912 34.776 363.235 34.776C364.984 34.776 366.691 34.2427 368.355 33.176C370.061 32.0667 371.704 30.7227 373.283 29.144C374.861 27.5227 376.397 25.9227 377.891 24.344C379.384 22.7653 380.835 21.4427 382.243 20.376C383.651 19.2667 385.016 18.712 386.339 18.712C386.509 18.6693 386.723 18.648 386.979 18.648C387.576 18.6907 388.045 18.8827 388.387 19.224C388.728 19.5653 388.899 19.9067 388.899 20.248C388.856 20.632 388.664 20.9307 388.323 21.144C387.981 21.3573 387.64 21.464 387.299 21.464C386.872 21.464 386.531 21.3787 386.275 21.208C386.019 20.9947 385.784 20.8667 385.571 20.824C385.4 20.7387 385.251 20.6747 385.123 20.632C384.995 20.5893 384.867 20.568 384.739 20.568C384.397 20.568 383.992 20.7173 383.523 21.016C382.243 22.0827 381.048 23.6187 379.939 25.624C378.829 27.5867 377.741 29.9333 376.675 32.664C375.267 36.2907 373.859 40.1093 372.451 44.12C371.085 48.1307 369.336 51.9493 367.203 55.576V55.64C367.16 55.7253 367.139 55.9173 367.139 56.216C367.139 56.7707 367.267 57.368 367.523 58.008C367.779 58.648 368.12 58.968 368.547 58.968H368.675C368.803 58.968 368.867 59.0107 368.867 59.096C368.867 59.224 368.717 59.352 368.419 59.48C368.163 59.5653 367.928 59.608 367.715 59.608C367.459 59.608 367.203 59.5227 366.947 59.352C366.691 59.224 366.499 59.0107 366.371 58.712C366.328 58.584 366.285 58.456 366.243 58.328C366.243 58.2 366.243 58.072 366.243 57.944C366.243 57.4747 366.307 57.0907 366.435 56.792C364.685 59.608 362.68 62.0613 360.419 64.152C358.2 66.2853 355.64 67.8427 352.739 68.824C352.269 69.08 351.715 69.4 351.075 69.784C350.435 70.168 349.901 70.5947 349.475 71.064C349.176 71.448 348.92 71.832 348.707 72.216C348.493 72.6427 348.387 73.0267 348.387 73.368C348.387 73.7947 348.579 74.1787 348.963 74.52C349.347 74.904 349.965 75.1387 350.819 75.224C350.733 74.8827 350.691 74.648 350.691 74.52C350.691 73.752 350.968 73.0693 351.523 72.472C352.077 71.8747 352.675 71.6613 353.315 71.832C353.869 72.0027 354.445 72.088 355.043 72.088C356.28 72.088 357.24 71.7893 357.923 71.192C358.648 70.6373 359.139 70.2107 359.395 69.912C359.437 70.04 359.458 70.2533 359.458 70.552C359.458 71.5333 359.117 72.4933 358.435 73.432C357.795 74.4133 357.24 75.1173 356.771 75.544C356.472 75.8 355.981 76.0987 355.299 76.44C354.616 76.824 353.912 77.016 353.187 77.016ZM365.603 24.472C367.139 24.472 368.653 24.3227 370.147 24.024C371.64 23.7253 373.048 23.2987 374.371 22.744C376.845 21.6347 378.637 20.3333 379.747 18.84C380.899 17.3467 381.475 15.9387 381.475 14.616C381.475 13.464 381.069 12.504 380.259 11.736C379.491 10.9253 378.36 10.52 376.867 10.52C375.971 10.52 374.947 10.712 373.795 11.096C372.685 11.4373 371.469 12.0133 370.147 12.824C368.312 13.9333 366.584 15.5333 364.963 17.624C363.341 19.672 362.04 21.8053 361.059 24.024C361.784 24.1947 362.531 24.3227 363.299 24.408C364.067 24.4507 364.835 24.472 365.603 24.472ZM382.758 47.384C381.563 47.384 380.646 46.936 380.006 46.04C379.366 45.1013 379.046 43.9067 379.046 42.456C379.046 40.8773 379.472 39.0427 380.326 36.952C380.795 35.8 381.499 34.6267 382.438 33.432C383.376 32.1947 384.464 31.064 385.702 30.04C386.939 28.9733 388.262 28.12 389.67 27.48C391.12 26.7973 392.592 26.456 394.086 26.456C395.238 26.456 396.027 26.7547 396.454 27.352C396.88 27.9493 397.094 28.6747 397.094 29.528C397.094 30.3387 396.966 31.1707 396.71 32.024L400.294 26.584C400.592 26.3707 401.254 26.264 402.278 26.264C403.046 26.264 403.771 26.3493 404.454 26.52C405.179 26.6907 405.392 26.9467 405.094 27.288C404.752 27.7147 404.155 28.376 403.302 29.272C402.491 30.1253 401.595 31.1493 400.614 32.344C399.675 33.5387 398.779 34.7973 397.926 36.12C397.499 36.8453 396.859 37.912 396.006 39.32C395.195 40.728 394.555 42.072 394.086 43.352C393.83 44.12 393.702 44.7387 393.702 45.208C393.702 46.104 394.086 46.552 394.854 46.552C395.28 46.552 395.856 46.4027 396.582 46.104C397.307 45.7627 398.011 45.3147 398.694 44.76C400.059 43.6507 401.254 42.328 402.278 40.792C403.302 39.2133 404.219 37.8267 405.03 36.632C405.072 36.5893 405.115 36.5467 405.158 36.504C405.243 36.4613 405.371 36.44 405.542 36.44C405.712 36.44 405.84 36.5253 405.926 36.696C406.011 36.824 405.968 36.9947 405.798 37.208C404.603 39 403.43 40.6853 402.278 42.264C401.126 43.8 399.952 45.0373 398.758 45.976C397.563 46.9147 396.262 47.384 394.854 47.384C393.744 47.384 392.848 47.064 392.166 46.424C391.526 45.7413 391.206 44.824 391.206 43.672C391.206 43.16 391.248 42.6267 391.333 42.072C391.462 41.5173 391.611 41.0053 391.782 40.536C391.099 41.432 390.246 42.4133 389.222 43.48C388.24 44.5467 387.195 45.464 386.086 46.232C384.976 47 383.867 47.384 382.758 47.384ZM383.334 46.168C384.187 46.168 385.083 45.8267 386.022 45.144C387.003 44.4613 387.984 43.5867 388.966 42.52C389.947 41.4107 390.843 40.2373 391.654 39C392.336 37.976 392.998 36.888 393.638 35.736C394.32 34.584 394.875 33.4533 395.302 32.344C395.771 31.2347 396.006 30.232 396.006 29.336C396.006 27.9707 395.515 27.288 394.534 27.288C393.851 27.288 393.062 27.5867 392.166 28.184C391.27 28.7813 390.352 29.5493 389.414 30.488C388.518 31.4267 387.664 32.4507 386.854 33.56C386.086 34.6267 385.467 35.672 384.998 36.696C384.87 36.952 384.55 37.5707 384.038 38.552C383.568 39.5333 383.099 40.6 382.63 41.752C382.203 42.904 381.99 43.9067 381.99 44.76C381.99 45.6987 382.438 46.168 383.334 46.168ZM430.752 47.96C429.472 47.96 428.554 47.64 428 47C427.445 46.3173 427.168 45.528 427.168 44.632C427.168 43.8213 427.317 43.0533 427.616 42.328C428.384 40.3227 429.301 38.5733 430.368 37.08C431.477 35.5867 432.629 33.9013 433.824 32.024C434.506 30.9147 434.847 30.0827 434.847 29.528C434.847 29.016 434.592 28.76 434.08 28.76C433.397 28.76 432.416 29.208 431.136 30.104C429.856 30.9573 428.533 32.1947 427.168 33.816C426.229 34.9253 425.205 36.2267 424.096 37.72C423.029 39.2133 422.005 40.664 421.024 42.072C420.042 43.48 419.253 44.6533 418.656 45.592C418.058 46.5307 417.76 47 417.76 47C417.504 47.0853 417.098 47.1493 416.544 47.192C415.989 47.2773 415.434 47.32 414.88 47.32C414.538 47.32 414.218 47.2987 413.92 47.256C413.664 47.256 413.429 47.2347 413.216 47.192C413.642 46.552 414.24 45.6773 415.008 44.568C415.818 43.4587 416.672 42.264 417.568 40.984C418.506 39.6613 419.402 38.3813 420.256 37.144C421.109 35.864 421.856 34.7547 422.496 33.816C423.136 32.8773 423.562 32.2373 423.776 31.896C424.544 30.6587 424.928 29.6347 424.928 28.824C424.928 28.2693 424.693 27.992 424.224 27.992C423.84 27.992 423.242 28.2693 422.432 28.824C421.621 29.336 420.533 30.232 419.168 31.512C418.272 32.3653 417.397 33.3253 416.544 34.392C415.69 35.4587 414.88 36.5253 414.112 37.592C412.917 39.1707 411.829 40.6853 410.848 42.136C409.866 43.544 409.077 44.696 408.48 45.592C407.925 46.488 407.626 46.9573 407.584 47C407.242 47.128 406.837 47.2133 406.368 47.256C405.941 47.2987 405.514 47.32 405.088 47.32C404.618 47.32 404.17 47.2987 403.744 47.256C403.36 47.2133 403.104 47.1707 402.976 47.128C403.488 46.4453 404.17 45.528 405.024 44.376C405.877 43.224 406.773 41.9653 407.712 40.6C408.693 39.192 409.632 37.8053 410.528 36.44C411.466 35.0747 412.277 33.8373 412.96 32.728C413.642 31.6187 414.133 30.7653 414.432 30.168C414.944 29.016 415.2 28.2267 415.2 27.8C415.2 27.3307 415.008 27.096 414.624 27.096C414.41 27.096 414.048 27.2453 413.536 27.544C412.981 27.928 412.32 28.5467 411.552 29.4C410.826 30.2107 410.08 31.128 409.312 32.152C408.544 33.176 407.84 34.1573 407.2 35.096C406.56 36.0347 406.069 36.7813 405.728 37.336C405.642 37.3787 405.536 37.4 405.408 37.4C405.237 37.4 405.109 37.336 405.024 37.208C404.938 37.08 404.917 36.9307 404.96 36.76C405.258 36.2907 405.749 35.5867 406.432 34.648C407.114 33.6667 407.861 32.6213 408.672 31.512C409.525 30.4027 410.336 29.4 411.104 28.504C411.872 27.5653 412.49 26.9253 412.96 26.584C413.856 25.944 414.709 25.624 415.52 25.624C416.245 25.624 416.821 25.88 417.248 26.392C417.674 26.8613 417.888 27.5013 417.888 28.312C417.888 29.4213 417.61 30.68 417.056 32.088C417.269 31.7893 417.717 31.32 418.4 30.68C419.082 29.9973 419.765 29.336 420.448 28.696C421.173 28.056 421.642 27.672 421.856 27.544C422.581 27.16 423.264 26.8827 423.904 26.712C424.586 26.5413 425.205 26.456 425.76 26.456C426.826 26.456 427.573 26.712 428 27.224C428.256 27.48 428.384 27.8853 428.384 28.44C428.384 28.9947 428.256 29.6133 428 30.296C427.744 30.9787 427.445 31.6187 427.104 32.216C427.872 31.4053 428.682 30.6373 429.536 29.912C430.389 29.1867 431.285 28.5467 432.224 27.992C433.077 27.48 433.845 27.1173 434.528 26.904C435.253 26.648 435.893 26.52 436.448 26.52C438.112 26.52 438.944 27.3733 438.944 29.08C438.944 29.72 438.773 30.4667 438.432 31.32C438.133 32.1733 437.621 33.0693 436.896 34.008C436.085 35.0747 435.04 36.44 433.76 38.104C432.522 39.768 431.541 41.368 430.816 42.904C430.304 43.9707 430.048 44.824 430.048 45.464C430.048 46.3173 430.453 46.744 431.264 46.744C431.904 46.744 432.757 46.424 433.824 45.784C435.104 45.016 436.469 43.864 437.92 42.328C439.413 40.792 440.821 38.8933 442.144 36.632C442.272 36.504 442.442 36.44 442.656 36.44C443.04 36.44 443.125 36.696 442.912 37.208C441.717 39.1707 440.437 40.9627 439.072 42.584C437.749 44.2053 436.384 45.5067 434.976 46.488C433.568 47.4693 432.16 47.96 430.752 47.96ZM446.437 47.576C445.327 47.576 444.282 47.32 443.301 46.808C442.319 46.2533 441.594 45.3787 441.125 44.184C440.826 43.416 440.677 42.5413 440.677 41.56C440.677 40.3653 440.911 39.192 441.381 38.04C441.978 36.632 442.853 35.2453 444.005 33.88C445.157 32.5147 446.437 31.2773 447.845 30.168C449.253 29.0587 450.661 28.184 452.069 27.544C453.477 26.8613 454.735 26.52 455.845 26.52C456.783 26.52 457.53 26.776 458.085 27.288C458.469 27.672 458.661 28.2267 458.661 28.952C458.661 29.8907 458.298 30.9787 457.573 32.216C456.89 33.4107 455.909 34.456 454.628 35.352C453.818 35.9067 452.858 36.376 451.749 36.76C450.682 37.1013 449.551 37.272 448.357 37.272C447.973 37.272 447.567 37.2507 447.141 37.208C446.757 37.1653 446.373 37.1013 445.989 37.016C445.69 37.3573 445.327 37.912 444.901 38.68C444.517 39.4053 444.175 40.216 443.877 41.112C443.621 42.008 443.493 42.8613 443.493 43.672C443.535 44.7813 443.834 45.5707 444.389 46.04C444.986 46.4667 445.69 46.68 446.501 46.68C448.122 46.68 449.679 46.168 451.173 45.144C452.709 44.0773 454.095 42.776 455.333 41.24C456.57 39.704 457.615 38.232 458.469 36.824C458.597 36.6533 458.703 36.568 458.789 36.568C458.874 36.5253 458.938 36.504 458.981 36.504C459.109 36.504 459.215 36.568 459.301 36.696C459.429 36.824 459.45 36.9947 459.365 37.208C458.81 38.104 458.085 39.1707 457.189 40.408C456.335 41.6453 455.311 42.84 454.117 43.992C452.965 45.1013 451.663 46.0187 450.213 46.744C449.658 47.0427 449.039 47.256 448.357 47.384C447.717 47.512 447.077 47.576 446.437 47.576ZM447.781 36.376C449.786 36.376 451.599 35.864 453.221 34.84C454.885 33.7733 456.079 32.4933 456.805 31C457.018 30.6587 457.146 30.3387 457.189 30.04C457.274 29.7413 457.317 29.5067 457.317 29.336C457.317 28.6107 456.911 28.248 456.101 28.248C455.589 28.248 455.013 28.376 454.373 28.632C453.775 28.888 453.242 29.1867 452.773 29.528C451.962 30.1253 451.109 30.872 450.213 31.768C449.359 32.6213 448.591 33.4747 447.909 34.328C447.226 35.1387 446.714 35.7787 446.373 36.248C446.586 36.2907 446.821 36.3333 447.077 36.376C447.333 36.376 447.567 36.376 447.781 36.376Z" fill="url(#paint0_linear_14_122)"/>
</g>
<defs>
<filter id="filter0_d_14_122" x="0.0880127" y="0.0879974" width="464.404" height="86.928" filterUnits="userSpaceOnUse" color-interpolation-filters="sRGB">
<feFlood flood-opacity="0" result="BackgroundImageFix"/>
<feColorMatrix in="SourceAlpha" type="matrix" values="0 0 0 0 0 0 0 0 0 0 0 0 0 0 0 0 0 0 127 0" result="hardAlpha"/>
<feOffset dy="5"/>
<feGaussianBlur stdDeviation="2.5"/>
<feComposite in2="hardAlpha" operator="out"/>
<feColorMatrix type="matrix" values="0 0 0 0 0 0 0 0 0 0 0 0 0 0 0 0 0 0 1 0"/>
<feBlend mode="normal" in2="BackgroundImageFix" result="effect1_dropShadow_14_122"/>
<feBlend mode="normal" in="SourceGraphic" in2="effect1_dropShadow_14_122" result="shape"/>
</filter>
<linearGradient id="paint0_linear_14_122" x1="228.5" y1="-12" x2="228.5" y2="76" gradientUnits="userSpaceOnUse">
<stop stop-color="#F9E05F"/>
<stop offset="1" stop-color="#B36B1F"/>
</linearGradient>
</defs>
</svg>
