<svg width="36" height="47" viewBox="0 0 36 47" fill="none" xmlns="http://www.w3.org/2000/svg">
<g id="&#226;&#128;&#152;s" filter="url(#filter0_d_15_124)">
<path d="M9.048 12.64C8.32267 12.64 7.72533 12.3627 7.256 11.808C6.78667 11.2533 6.552 10.6347 6.552 9.952C6.552 9.26933 6.70133 8.43733 7 7.456C7.34133 6.47467 7.832 5.49333 8.472 4.512C9.15467 3.488 9.98667 2.592 10.968 1.824C11.992 1.056 13.1653 0.565331 14.488 0.351997C14.8293 0.351997 15.0853 0.437331 15.256 0.607998C15.4267 0.735999 15.512 0.885333 15.512 1.056C15.512 1.35467 15.2347 1.504 14.68 1.504C13.3573 1.76 12.248 2.272 11.352 3.04C10.4987 3.808 9.83733 4.64 9.368 5.536C8.89867 6.432 8.55733 7.2 8.344 7.84C8.55733 7.66933 8.81333 7.54133 9.112 7.456C9.41067 7.328 9.73067 7.264 10.072 7.264C10.7973 7.264 11.3307 7.54133 11.672 8.096C12.0133 8.65067 12.184 9.22667 12.184 9.824C12.184 10.6347 11.8213 11.3173 11.096 11.872C10.4133 12.384 9.73067 12.64 9.048 12.64ZM29.695 25.44C29.823 25.44 29.9297 25.504 30.015 25.632C30.1003 25.76 30.1003 25.952 30.015 26.208C28.0097 29.408 25.727 31.6907 23.167 33.056C20.607 34.3787 18.0683 35.2747 15.551 35.744C14.527 36 13.4603 36.128 12.351 36.128C10.9003 36.128 9.535 35.8507 8.255 35.296C6.975 34.7413 6.05767 33.824 5.503 32.544C5.247 31.904 5.119 31.264 5.119 30.624C5.119 29.6853 5.35367 28.8747 5.823 28.192C6.335 27.4667 6.86833 26.9547 7.423 26.656C7.76433 26.4427 8.127 26.3147 8.511 26.272C8.93767 26.1867 9.36433 26.144 9.791 26.144C10.3457 26.144 10.8363 26.208 11.263 26.336C11.391 26.1227 11.775 25.504 12.415 24.48C13.055 23.4133 13.8443 22.176 14.783 20.768C15.7217 19.3173 16.703 17.952 17.727 16.672C18.8363 15.3067 19.903 14.176 20.927 13.28C21.951 12.384 22.6977 11.8933 23.167 11.808C23.295 11.7653 23.423 11.744 23.551 11.744C23.679 11.744 23.7857 11.744 23.871 11.744C24.3403 11.744 24.6817 11.8507 24.895 12.064C25.151 12.2773 25.279 12.5333 25.279 12.832C25.279 13.1307 25.1083 13.4293 24.767 13.728C24.4683 14.0267 24.0203 14.176 23.423 14.176C22.7403 14.176 22.0577 14.368 21.375 14.752C20.6923 15.0933 20.287 15.4987 20.159 15.968C20.031 16.352 19.967 16.7787 19.967 17.248C19.967 18.016 20.095 18.784 20.351 19.552C20.6497 20.32 20.927 21.088 21.183 21.856C21.439 22.624 21.6737 23.4133 21.887 24.224C22.143 25.0347 22.271 25.9093 22.271 26.848C22.271 27.7013 22.143 28.576 21.887 29.472C21.4177 31.264 20.543 32.7147 19.263 33.824C20.799 33.312 22.4417 32.4587 24.191 31.264C25.9403 30.0693 27.583 28.256 29.119 25.824C29.247 25.6107 29.3537 25.504 29.439 25.504C29.567 25.4613 29.6523 25.44 29.695 25.44ZM11.583 35.296C12.1377 35.296 12.7137 35.2107 13.311 35.04C13.9083 34.8693 14.4843 34.592 15.039 34.208C15.807 33.7387 16.447 32.992 16.959 31.968C17.471 30.944 17.8763 29.8347 18.175 28.64C18.5163 27.4027 18.751 26.2293 18.879 25.12C19.0497 24.0107 19.135 23.136 19.135 22.496C19.135 21.6 19.0497 20.704 18.879 19.808C18.751 18.912 18.7083 18.0373 18.751 17.184C17.8123 18.464 16.7457 19.8933 15.551 21.472C14.399 23.0507 13.2683 24.8 12.159 26.72C12.671 27.0187 13.0977 27.3813 13.439 27.808C13.823 28.192 14.079 28.8107 14.207 29.664C14.2497 30.0053 14.143 30.3893 13.887 30.816C13.6737 31.2 13.247 31.392 12.607 31.392C12.1803 31.392 11.967 31.264 11.967 31.008C11.967 30.7947 12.095 30.6027 12.351 30.432C12.7777 30.0907 12.991 29.7067 12.991 29.28C12.991 29.024 12.927 28.768 12.799 28.512C12.5003 27.9573 12.0737 27.552 11.519 27.296C11.007 27.04 10.4523 26.912 9.855 26.912C9.00167 26.912 8.27633 27.168 7.679 27.68C7.167 28.1067 6.80433 28.576 6.591 29.088C6.37767 29.5573 6.271 30.048 6.271 30.56C6.271 31.3707 6.48433 32.1387 6.911 32.864C7.33767 33.5467 7.84967 34.0587 8.447 34.4C9.38567 34.9973 10.431 35.296 11.583 35.296Z" fill="url(#paint0_linear_15_124)"/>
</g>
<defs>
<filter id="filter0_d_15_124" x="0.119019" y="0.35199" width="35.0239" height="45.776" filterUnits="userSpaceOnUse" color-interpolation-filters="sRGB">
<feFlood flood-opacity="0" result="BackgroundImageFix"/>
<feColorMatrix in="SourceAlpha" type="matrix" values="0 0 0 0 0 0 0 0 0 0 0 0 0 0 0 0 0 0 127 0" result="hardAlpha"/>
<feOffset dy="5"/>
<feGaussianBlur stdDeviation="2.5"/>
<feComposite in2="hardAlpha" operator="out"/>
<feColorMatrix type="matrix" values="0 0 0 0 0 0 0 0 0 0 0 0 0 0 0 0 0 0 1 0"/>
<feBlend mode="normal" in2="BackgroundImageFix" result="effect1_dropShadow_15_124"/>
<feBlend mode="normal" in="SourceGraphic" in2="effect1_dropShadow_15_124" result="shape"/>
</filter>
<linearGradient id="paint0_linear_15_124" x1="11" y1="-23" x2="11" y2="65" gradientUnits="userSpaceOnUse">
<stop stop-color="#EB008B"/>
<stop offset="1" stop-color="white"/>
</linearGradient>
</defs>
</svg>
