<svg width="94" height="76" viewBox="0 0 94 76" fill="none" xmlns="http://www.w3.org/2000/svg">
<g id="J" filter="url(#filter0_d_14_123)">
<path d="M17.3834 65.4123C17.2127 65.4123 17.0207 65.3483 16.8074 65.2203C16.2527 64.8363 15.9754 64.3883 15.9754 63.8763C15.9754 62.9803 16.5514 62.319 17.7034 61.8923C17.874 61.807 18.0447 61.7643 18.2154 61.7643C15.7834 60.8683 13.6074 59.5457 11.6874 57.7963C9.81003 56.047 8.33803 53.9777 7.27136 51.5883C6.20469 49.199 5.67136 46.639 5.67136 43.9083C5.67136 42.031 5.94869 40.0897 6.50336 38.0843C7.10069 36.0363 7.99669 33.9883 9.19136 31.9403C10.5567 29.679 12.242 27.759 14.2474 26.1803C16.2527 24.6017 18.4287 23.407 20.7754 22.5963C23.1647 21.7857 25.554 21.3803 27.9434 21.3803C28.2847 21.3803 28.6047 21.3803 28.9034 21.3803C29.202 21.3803 29.5007 21.4017 29.7994 21.4443C30.098 21.359 30.3754 21.295 30.6314 21.2523C30.8874 21.167 31.122 21.0603 31.3354 20.9323C32.274 20.463 32.8927 19.9083 33.1914 19.2683C32.5514 19.1403 32.018 18.799 31.5914 18.2443C31.2074 17.647 31.0154 17.007 31.0154 16.3243C31.0154 15.599 31.122 15.0017 31.3354 14.5323C31.5487 14.0203 31.7407 13.5937 31.9114 13.2523C31.9967 13.039 32.082 12.8043 32.1674 12.5483C32.2527 12.2497 32.2954 11.951 32.2954 11.6523C32.2954 11.2683 32.21 10.9057 32.0394 10.5643C31.9114 10.223 31.634 10.0097 31.2074 9.92433C31.2927 9.839 31.378 9.75366 31.4634 9.66833C31.5914 9.583 31.8047 9.54033 32.1034 9.54033C32.8287 9.54033 33.5114 9.88166 34.1514 10.5643C34.7914 11.247 35.3247 12.0577 35.7514 12.9963C36.178 13.8923 36.3914 14.703 36.3914 15.4283C36.3914 16.495 36.114 17.391 35.5594 18.1163C35.0474 18.799 34.4714 19.183 33.8314 19.2683C33.4474 20.2497 32.8074 20.9963 31.9114 21.5083L31.5914 21.7003C33.4687 21.999 35.2607 22.6177 36.9674 23.5563C38.674 24.4523 40.21 25.647 41.5754 27.1403C42.3434 27.9937 43.0047 28.975 43.5594 30.0843C44.1567 31.151 44.6047 32.2603 44.9034 33.4123C45.1167 33.8817 45.458 34.2657 45.9274 34.5643C46.3967 34.8203 46.7807 34.991 47.0794 35.0763C47.25 35.119 47.4847 35.1403 47.7834 35.1403C48.1247 35.1403 48.4234 35.0977 48.6794 35.0123C48.978 34.8843 49.1487 34.6923 49.1914 34.4363C49.2767 34.223 49.362 34.1163 49.4474 34.1163C49.746 34.1163 49.8954 34.4577 49.8954 35.1403C49.8954 35.6523 49.7247 36.0577 49.3834 36.3563C49.042 36.6123 48.6367 36.7403 48.1674 36.7403C47.9967 36.7403 47.7834 36.719 47.5274 36.6763C47.314 36.6337 47.1007 36.5483 46.8874 36.4203C46.0767 36.0363 45.5007 35.4177 45.1594 34.5643C45.2447 34.991 45.3087 35.4177 45.3514 35.8443C45.394 36.271 45.4154 36.6977 45.4154 37.1243C45.4154 38.1057 45.2874 39.0657 45.0314 40.0043C44.818 40.9857 44.4767 41.8817 44.0074 42.6923C44.05 42.8203 44.0714 42.9483 44.0714 43.0763C44.114 43.2043 44.1354 43.3323 44.1354 43.4603C44.1354 44.015 43.986 44.5483 43.6874 45.0603C43.3887 45.615 42.9194 46.127 42.2794 46.5963C41.4687 47.1083 40.3594 47.3643 38.9514 47.3643C38.5674 47.3643 38.1834 47.343 37.7994 47.3003C37.4154 47.2577 37.0314 47.1937 36.6474 47.1083C36.0927 47.023 35.474 47.087 34.7914 47.3003C34.1514 47.5137 33.7674 47.855 33.6394 48.3243C33.554 48.623 33.4687 48.8363 33.3834 48.9643C33.3407 49.0923 33.234 49.0497 33.0634 48.8363C32.6794 48.3243 32.4874 47.791 32.4874 47.2363C32.4874 46.1697 33.0847 45.2523 34.2794 44.4843C35.474 43.7163 36.9034 43.4177 38.5674 43.5883C39.2927 43.631 39.954 43.5883 40.5514 43.4603C41.1487 43.3323 41.6607 43.1403 42.0874 42.8843C41.5327 42.927 40.9994 42.8203 40.4874 42.5643C39.9754 42.351 39.6767 41.9883 39.5914 41.4763V41.2203C39.5914 40.7083 39.698 40.3457 39.9114 40.1323C40.0394 40.0043 40.1674 39.9403 40.2954 39.9403C40.5087 39.9403 40.5727 40.0897 40.4874 40.3883C40.3167 40.815 40.4447 41.199 40.8714 41.5403C41.298 41.8817 41.7887 42.0523 42.3434 42.0523C42.7274 42.0523 43.0687 41.967 43.3674 41.7963L43.4954 41.6043C43.8794 41.007 44.1354 40.3457 44.2634 39.6203C44.3914 38.895 44.4554 38.127 44.4554 37.3163C44.4554 35.695 44.1354 34.0523 43.4954 32.3883C42.8554 30.7243 41.9807 29.2737 40.8714 28.0363C39.3354 26.3723 37.586 25.1563 35.6234 24.3883C33.6607 23.6203 31.6127 23.2363 29.4794 23.2363C25.7247 23.2363 22.162 24.2603 18.7914 26.3083C19.0474 26.2657 19.282 26.2443 19.4954 26.2443C19.7514 26.2443 19.986 26.2443 20.1994 26.2443C21.3514 26.2443 22.2474 26.3937 22.8874 26.6923L22.9514 26.6283C23.25 26.3297 23.7407 26.1803 24.4234 26.1803C24.978 26.1803 25.554 26.3297 26.1514 26.6283C26.7487 26.927 27.282 27.375 27.7514 27.9723C28.2207 28.527 28.6047 29.2737 28.9034 30.2123C29.202 31.151 29.3514 32.047 29.3514 32.9003C29.3514 33.3697 29.2874 33.8177 29.1594 34.2443C29.074 34.671 28.9034 35.0337 28.6474 35.3323C28.3914 35.631 28.1567 35.8017 27.9434 35.8443C27.7727 35.8443 27.6447 35.823 27.5594 35.7803C27.73 35.567 27.8154 35.311 27.8154 35.0123C27.8154 34.5003 27.5807 34.031 27.1114 33.6043C26.6847 33.1777 26.2367 32.879 25.7674 32.7083C25.3407 32.5377 24.8927 32.367 24.4234 32.1963C23.954 31.983 23.4634 31.599 22.9514 31.0443C22.3114 30.4043 21.9914 29.615 21.9914 28.6763C21.9914 28.1217 22.1194 27.6523 22.3754 27.2683C21.906 27.0977 21.2874 27.0123 20.5194 27.0123C19.8794 27.0123 19.1967 27.0977 18.4714 27.2683C17.7887 27.3963 17.1274 27.631 16.4874 27.9723C14.4394 29.551 12.818 31.4497 11.6234 33.6683C10.5994 35.4603 9.8527 37.2737 9.38336 39.1083C8.91403 40.9003 8.67936 42.671 8.67936 44.4203C8.67936 47.2363 9.25536 49.8603 10.4074 52.2923C11.5594 54.7243 13.1807 56.7297 15.2714 58.3083C17.4047 59.887 19.858 60.8683 22.6314 61.2523C23.2714 61.3377 23.89 61.4017 24.4874 61.4443C25.1274 61.487 25.746 61.5083 26.3434 61.5083C28.1354 61.5083 29.842 61.3163 31.4634 60.9323C33.1274 60.591 34.6847 60.1003 36.1354 59.4603C35.2394 59.4603 34.4287 59.183 33.7034 58.6283C33.0207 58.0737 32.6794 57.455 32.6794 56.7723C32.6794 56.175 32.8927 55.7483 33.3194 55.4923C33.746 55.279 34.13 55.1723 34.4714 55.1723C34.7274 55.1723 34.898 55.215 34.9834 55.3003C35.1114 55.4283 35.026 55.5777 34.7274 55.7483C34.4287 55.919 34.2794 56.2177 34.2794 56.6443C34.2794 57.1137 34.4074 57.5403 34.6634 57.9243C34.7914 58.1803 35.026 58.4577 35.3674 58.7563C35.7087 59.055 36.1354 59.2043 36.6474 59.2043C39.6767 57.7537 42.4287 55.7697 44.9034 53.2523C47.4207 50.735 49.746 47.855 51.8794 44.6123C54.0127 41.3697 56.0394 37.9777 57.9594 34.4363C59.922 30.895 61.8847 27.375 63.8474 23.8763C65.7247 20.5483 67.6234 17.455 69.5434 14.5963C71.506 11.695 73.5114 9.17766 75.5594 7.04433C77.65 4.911 79.8047 3.311 82.0234 2.24433C80.3167 2.159 78.4394 2.00966 76.3914 1.79633C74.386 1.583 72.4234 1.391 70.5034 1.22033C68.5834 1.007 66.8767 0.90033 65.3834 0.90033C61.7994 0.90033 58.9194 1.455 56.7434 2.56433C54.5674 3.631 52.9674 4.975 51.9434 6.59633C50.962 8.21766 50.4714 9.86033 50.4714 11.5243C50.4714 13.359 51.0047 14.959 52.0714 16.3243C53.1807 17.647 54.6527 18.3083 56.4874 18.3083C57.7247 18.3083 58.898 17.967 60.0074 17.2843C61.1594 16.6017 62.0767 15.7057 62.7594 14.5963C63.4847 13.4443 63.826 12.1857 63.7834 10.8203C63.7407 10.3937 63.6127 9.967 63.3994 9.54033C63.186 9.071 62.866 8.687 62.4394 8.38833C61.8847 7.87633 61.266 7.62033 60.5834 7.62033C60.1994 7.62033 59.922 7.727 59.7514 7.94033C59.6234 8.06833 59.5167 8.13233 59.4314 8.13233C59.2607 8.13233 59.1754 7.983 59.1754 7.68433C59.1754 7.471 59.1967 7.30033 59.2394 7.17233C59.5807 6.14833 60.1994 5.63633 61.0954 5.63633C61.9487 5.63633 62.7167 6.08433 63.3994 6.98033C63.7407 7.407 63.9754 8.00433 64.1034 8.77233C64.274 9.54033 64.3594 10.2443 64.3594 10.8843C64.3594 11.1403 64.3594 11.3963 64.3594 11.6523C64.3594 11.9083 64.338 12.1643 64.2954 12.4203C64.4234 12.207 64.5514 12.015 64.6794 11.8443C64.85 11.631 65.042 11.4603 65.2554 11.3323C65.6394 11.0763 66.0447 10.9483 66.4714 10.9483C66.898 10.9483 67.2607 11.0763 67.5594 11.3323C67.858 11.5883 68.0074 11.951 68.0074 12.4203C68.0074 12.7617 67.922 12.9963 67.7514 13.1243C67.6234 13.2097 67.538 13.1243 67.4954 12.8683C67.41 12.527 67.0687 12.3563 66.4714 12.3563C66.3434 12.3563 66.2154 12.3777 66.0874 12.4203C65.9594 12.4203 65.8314 12.4417 65.7034 12.4843C65.4047 12.5697 65.0634 12.783 64.6794 13.1243C64.338 13.423 64.0394 13.807 63.7834 14.2763C63.1007 15.8123 62.0127 16.9857 60.5194 17.7963C59.0687 18.607 57.49 19.0123 55.7834 19.0123C54.3327 19.0123 53.0527 18.735 51.9434 18.1803C50.8767 17.6257 49.9807 16.879 49.2554 15.9403C49.2554 16.111 49.2554 16.2817 49.2554 16.4523C49.2554 16.623 49.234 16.7937 49.1914 16.9643C49.0634 17.6043 48.7647 18.1163 48.2954 18.5003C48.466 18.799 48.5514 19.1617 48.5514 19.5883C48.5514 19.887 48.4874 20.2283 48.3594 20.6123C48.2314 20.9963 48.018 21.359 47.7194 21.7003C47.3354 22.127 46.7807 22.511 46.0554 22.8523C45.33 23.1937 44.626 23.3643 43.9434 23.3643C43.5167 23.3643 43.1327 23.2577 42.7914 23.0443C42.578 22.9163 42.45 22.7883 42.4074 22.6603C42.3647 22.4897 42.3434 22.383 42.3434 22.3403C42.8127 22.5537 43.2394 22.447 43.6234 22.0203C44.0074 21.5937 44.2207 21.1883 44.2634 20.8043C44.3487 20.5057 44.434 20.1857 44.5194 19.8443C44.6047 19.503 44.7967 19.119 45.0954 18.6923C45.5647 18.095 46.1834 17.7963 46.9514 17.7963C47.378 17.7963 47.7407 17.9243 48.0394 18.1803C48.21 18.0097 48.338 17.7963 48.4234 17.5403C48.5514 17.2843 48.6367 17.007 48.6794 16.7083V16.1963C48.6794 15.983 48.658 15.7483 48.6154 15.4923C48.6154 15.2363 48.594 15.0017 48.5514 14.7883C48.2527 14.191 48.0394 13.551 47.9114 12.8683C47.7834 12.1857 47.7407 11.4817 47.7834 10.7563L47.7194 10.8203C47.5487 10.991 47.3567 11.119 47.1434 11.2043C46.93 11.247 46.7167 11.2683 46.5034 11.2683C45.7354 11.2683 45.2874 10.9057 45.1594 10.1803C45.1167 9.967 45.138 9.81766 45.2234 9.73233C45.3514 9.60433 45.458 9.647 45.5434 9.86033C45.6714 10.0737 45.8847 10.1803 46.1834 10.1803C46.4394 10.1803 46.738 10.095 47.0794 9.92433C47.4207 9.79633 47.762 9.455 48.1034 8.90033C48.53 7.407 49.3834 5.999 50.6634 4.67633C51.9434 3.311 53.6927 2.20166 55.9114 1.34833C58.13 0.494995 60.882 0.0683289 64.1674 0.0683289C65.4047 0.0683289 66.9194 0.132329 68.7114 0.26033C70.546 0.388329 72.466 0.537661 74.4714 0.708328C76.4767 0.878995 78.354 1.02833 80.1034 1.15633C81.8527 1.28433 83.2607 1.34833 84.3274 1.34833C85.3514 1.04966 86.4607 0.90033 87.6554 0.90033C88.5514 0.90033 88.9994 1.04966 88.9994 1.34833C88.9994 1.647 88.5514 1.79633 87.6554 1.79633C84.8394 1.92433 82.0234 3.52433 79.2074 6.59633C77.0314 8.98566 75.09 11.6097 73.3834 14.4683C71.6767 17.327 70.0767 20.3137 68.5834 23.4283C67.1327 26.5003 65.6607 29.615 64.1674 32.7723C62.7167 35.887 61.138 38.9163 59.4314 41.8603C57.7247 44.847 55.7834 47.6203 53.6074 50.1803C50.1087 54.319 46.226 57.519 41.9594 59.7803C37.6927 62.0417 32.914 63.1723 27.6234 63.1723C26.77 63.1723 25.8954 63.151 24.9994 63.1083C24.146 63.0657 23.2714 62.959 22.3754 62.7883L20.2634 62.4043C19.5807 62.447 19.0047 62.639 18.5354 62.9803C18.1514 63.279 17.8314 63.6203 17.5754 64.0043C17.362 64.3883 17.362 64.7083 17.5754 64.9643C17.6607 65.0497 17.7034 65.135 17.7034 65.2203C17.7034 65.3483 17.5967 65.4123 17.3834 65.4123Z" fill="url(#paint0_linear_14_123)"/>
</g>
<defs>
<filter id="filter0_d_14_123" x="0.671387" y="0.0683289" width="93.328" height="75.344" filterUnits="userSpaceOnUse" color-interpolation-filters="sRGB">
<feFlood flood-opacity="0" result="BackgroundImageFix"/>
<feColorMatrix in="SourceAlpha" type="matrix" values="0 0 0 0 0 0 0 0 0 0 0 0 0 0 0 0 0 0 127 0" result="hardAlpha"/>
<feOffset dy="5"/>
<feGaussianBlur stdDeviation="2.5"/>
<feComposite in2="hardAlpha" operator="out"/>
<feColorMatrix type="matrix" values="0 0 0 0 0 0 0 0 0 0 0 0 0 0 0 0 0 0 1 0"/>
<feBlend mode="normal" in2="BackgroundImageFix" result="effect1_dropShadow_14_123"/>
<feBlend mode="normal" in="SourceGraphic" in2="effect1_dropShadow_14_123" result="shape"/>
</filter>
<linearGradient id="paint0_linear_14_123" x1="33.4954" y1="-19.3797" x2="33.4954" y2="68.6203" gradientUnits="userSpaceOnUse">
<stop stop-color="#EB008B"/>
<stop offset="1" stop-color="white"/>
</linearGradient>
</defs>
</svg>
