<svg width="109" height="118" viewBox="0 0 109 118" fill="none" xmlns="http://www.w3.org/2000/svg">
<g id="Ladybug Jojo&#39;s Golden Wind Logo" filter="url(#filter0_d_14_103)">
<path fill-rule="evenodd" clip-rule="evenodd" d="M26.4545 104.863C50.4538 116.054 80.4103 102.606 93.3644 74.8264C106.318 47.0465 97.3644 15.4542 73.3652 4.26317C49.3659 -6.92787 19.4093 6.52011 6.45533 34.3001C-6.49868 62.0801 2.45526 93.6723 26.4545 104.863ZM9.54925 46.9058C10.369 43.6919 11.5058 40.487 12.9735 37.3396C13.7798 35.6105 14.6635 33.9468 15.6171 32.3518C16.5838 34.2043 18.145 35.7652 20.185 36.7165C25.1163 39.016 30.9781 36.8825 33.2777 31.9511C35.5772 27.0198 33.4437 21.158 28.5123 18.8584C28.2131 18.7189 27.9106 18.5957 27.6055 18.4885C29.548 16.9234 31.5815 15.527 33.6828 14.3095C34.9129 19.3951 37.1041 24.216 40.1548 28.5058C43.8796 33.7435 48.7729 38.0308 54.4373 41.0338C50.0888 44.8962 44.5409 46.4731 39.4908 47.9085C33.8123 49.5225 28.763 50.9576 26.7558 55.262C22.8827 63.568 35.4401 71.6127 42.3999 67.5602L28.7924 96.7414C24.1068 94.3437 20.1366 91.0066 16.9581 86.999C20.1207 88.1435 23.6902 86.7025 25.1388 83.5958C26.6719 80.3082 25.2495 76.4003 21.962 74.8673C18.6744 73.3343 14.7665 74.7566 13.2335 78.0442C12.9036 78.7517 12.7106 79.4879 12.6435 80.223C9.50177 73.9813 7.86849 66.7772 7.92988 59.2674C8.64743 60.0671 9.53475 60.7383 10.57 61.2211C14.6795 63.1374 19.5643 61.3594 21.4806 57.25C23.3969 53.1405 21.619 48.2557 17.5095 46.3394C14.8414 45.0952 11.8464 45.4083 9.54925 46.9058ZM57.3627 42.4401C57.2114 48.2374 59.5635 53.4873 61.705 58.2671C64.1187 63.6546 66.2649 68.445 64.2577 72.7494C60.3845 81.0554 46.15 76.6068 44.781 68.6704L31.1735 97.8517C36.0084 99.8941 41.1014 100.791 46.2 100.656C43.1066 99.0393 41.8044 95.2575 43.2945 92.0619C44.8275 88.7743 48.7354 87.352 52.023 88.885C55.3105 90.418 56.7329 94.3259 55.1998 97.6134C54.8108 98.4478 54.2688 99.162 53.6228 99.7382C60.695 98.1777 67.5361 94.6971 73.4497 89.6091C72.2281 89.637 70.9815 89.3914 69.7991 88.8401C65.6897 86.9238 63.9117 82.039 65.828 77.9295C67.7443 73.82 72.6291 72.0421 76.7386 73.9584C79.5656 75.2766 81.2892 77.9997 81.4658 80.9087C83.5038 78.1195 85.3148 75.071 86.8462 71.7869C87.6876 69.9825 88.4203 68.1592 89.0468 66.3261C86.9023 66.8882 84.5566 66.7334 82.3904 65.7233C77.4591 63.4238 75.3255 57.562 77.6251 52.6306C79.9246 47.6993 85.7864 45.5658 90.7177 47.8653C91.1254 48.0554 91.514 48.2699 91.8825 48.5061C91.84 46.2687 91.6464 44.0623 91.3069 41.9044C86.6013 44.1213 81.5034 45.4342 76.2799 45.7565C69.7939 46.1566 63.3126 45.017 57.3627 42.4401ZM87.1619 28.8753C85.5101 25.5999 83.4425 22.59 80.9861 19.9408C77.2488 19.0081 73.2545 20.8189 71.5657 24.4405C69.6494 28.5499 71.4274 33.4348 75.5368 35.351C79.6463 37.2673 84.5311 35.4894 86.4474 31.3799C86.827 30.5658 87.0617 29.7212 87.1619 28.8753ZM56.5653 8.50809C53.1097 8.32665 49.6291 8.63148 46.2027 9.38702C45.5049 10.0639 44.9164 10.8772 44.481 11.8107C42.5648 15.9202 44.3427 20.805 48.4522 22.7213C52.5616 24.6375 57.4464 22.8596 59.3627 18.7501C61.0852 15.0562 59.8229 10.7358 56.5653 8.50809ZM65.6455 30.9198C64.6874 32.9746 62.245 33.8635 60.1902 32.9054C58.1355 31.9473 57.2465 29.5048 58.2047 27.4501C59.1628 25.3954 61.6052 24.5064 63.66 25.4646C65.7147 26.4227 66.6036 28.8651 65.6455 30.9198Z" fill="url(#paint0_linear_14_103)"/>
</g>
<defs>
<filter id="filter0_d_14_103" x="0.519653" y="0.320694" width="107.78" height="117.485" filterUnits="userSpaceOnUse" color-interpolation-filters="sRGB">
<feFlood flood-opacity="0" result="BackgroundImageFix"/>
<feColorMatrix in="SourceAlpha" type="matrix" values="0 0 0 0 0 0 0 0 0 0 0 0 0 0 0 0 0 0 127 0" result="hardAlpha"/>
<feOffset dx="5" dy="5"/>
<feGaussianBlur stdDeviation="2"/>
<feComposite in2="hardAlpha" operator="out"/>
<feColorMatrix type="matrix" values="0 0 0 0 0 0 0 0 0 0 0 0 0 0 0 0 0 0 1 0"/>
<feBlend mode="normal" in2="BackgroundImageFix" result="effect1_dropShadow_14_103"/>
<feBlend mode="normal" in="SourceGraphic" in2="effect1_dropShadow_14_103" result="shape"/>
</filter>
<linearGradient id="paint0_linear_14_103" x1="73.3652" y1="4.26317" x2="26.4545" y2="104.863" gradientUnits="userSpaceOnUse">
<stop stop-color="#EB008B"/>
<stop offset="1" stop-color="white"/>
</linearGradient>
</defs>
</svg>
